solid base
   facet normal -0.000000e+00 0.000000e+00 1.000000e+00
      outer loop
         vertex -6.000000e+02 -1.005000e+03 6.000000e+01
         vertex -6.000000e+02 -1.125000e+03 6.000000e+01
         vertex 6.000000e+02 -1.005000e+03 6.000000e+01
      endloop
   endfacet
   facet normal 0.000000e+00 0.000000e+00 1.000000e+00
      outer loop
         vertex 6.000000e+02 -1.005000e+03 6.000000e+01
         vertex -6.000000e+02 -1.125000e+03 6.000000e+01
         vertex 6.000000e+02 -1.125000e+03 6.000000e+01
      endloop
   endfacet
   facet normal 0.000000e+00 0.000000e+00 1.000000e+00
      outer loop
         vertex 6.000000e+02 -5.250000e+02 6.000000e+01
         vertex -6.000000e+02 -5.250000e+02 6.000000e+01
         vertex 6.000000e+02 -6.450000e+02 6.000000e+01
      endloop
   endfacet
   facet normal 0.000000e+00 0.000000e+00 1.000000e+00
      outer loop
         vertex 6.000000e+02 -6.450000e+02 6.000000e+01
         vertex -6.000000e+02 -5.250000e+02 6.000000e+01
         vertex -6.000000e+02 -6.450000e+02 6.000000e+01
      endloop
   endfacet
   facet normal 1.000000e+00 0.000000e+00 0.000000e+00
      outer loop
         vertex 4.875000e+02 -5.250000e+02 -6.150000e+02
         vertex 4.875000e+02 2.250000e+02 -6.150000e+02
         vertex 4.875000e+02 -5.250000e+02 -3.150000e+02
      endloop
   endfacet
   facet normal 1.000000e+00 -0.000000e+00 0.000000e+00
      outer loop
         vertex 4.875000e+02 -5.250000e+02 -3.150000e+02
         vertex 4.875000e+02 2.250000e+02 -6.150000e+02
         vertex 4.875000e+02 2.250000e+02 -3.150000e+02
      endloop
   endfacet
   facet normal -1.000000e+00 0.000000e+00 0.000000e+00
      outer loop
         vertex -4.875000e+02 2.250000e+02 -6.150000e+02
         vertex -4.875000e+02 -5.250000e+02 -6.150000e+02
         vertex -4.875000e+02 2.250000e+02 -3.150000e+02
      endloop
   endfacet
   facet normal -1.000000e+00 -0.000000e+00 0.000000e+00
      outer loop
         vertex -4.875000e+02 2.250000e+02 -3.150000e+02
         vertex -4.875000e+02 -5.250000e+02 -6.150000e+02
         vertex -4.875000e+02 -5.250000e+02 -3.150000e+02
      endloop
   endfacet
   facet normal 0.000000e+00 1.000000e+00 -0.000000e+00
      outer loop
         vertex 4.875000e+02 2.250000e+02 -6.150000e+02
         vertex -4.875000e+02 2.250000e+02 -6.150000e+02
         vertex 4.875000e+02 2.250000e+02 -3.150000e+02
      endloop
   endfacet
   facet normal 0.000000e+00 1.000000e+00 0.000000e+00
      outer loop
         vertex 4.875000e+02 2.250000e+02 -3.150000e+02
         vertex -4.875000e+02 2.250000e+02 -6.150000e+02
         vertex -4.875000e+02 2.250000e+02 -3.150000e+02
      endloop
   endfacet
   facet normal 0.000000e+00 0.000000e+00 -1.000000e+00
      outer loop
         vertex 4.875000e+02 -5.250000e+02 -6.150000e+02
         vertex 6.000000e+02 -5.250000e+02 -6.150000e+02
         vertex 6.000000e+02 -1.125000e+03 -6.150000e+02
      endloop
   endfacet
   facet normal 0.000000e+00 0.000000e+00 -1.000000e+00
      outer loop
         vertex -6.000000e+02 -1.125000e+03 -6.150000e+02
         vertex -6.000000e+02 -5.250000e+02 -6.150000e+02
         vertex -4.875000e+02 -5.250000e+02 -6.150000e+02
      endloop
   endfacet
   facet normal 0.000000e+00 0.000000e+00 -1.000000e+00
      outer loop
         vertex -4.875000e+02 2.250000e+02 -6.150000e+02
         vertex 4.875000e+02 2.250000e+02 -6.150000e+02
         vertex -4.875000e+02 -5.250000e+02 -6.150000e+02
      endloop
   endfacet
   facet normal 0.000000e+00 0.000000e+00 -1.000000e+00
      outer loop
         vertex -4.875000e+02 -5.250000e+02 -6.150000e+02
         vertex 4.875000e+02 2.250000e+02 -6.150000e+02
         vertex 4.875000e+02 -5.250000e+02 -6.150000e+02
      endloop
   endfacet
   facet normal 0.000000e+00 -0.000000e+00 -1.000000e+00
      outer loop
         vertex -4.875000e+02 -5.250000e+02 -6.150000e+02
         vertex 4.875000e+02 -5.250000e+02 -6.150000e+02
         vertex -6.000000e+02 -1.125000e+03 -6.150000e+02
      endloop
   endfacet
   facet normal 0.000000e+00 0.000000e+00 -1.000000e+00
      outer loop
         vertex -6.000000e+02 -1.125000e+03 -6.150000e+02
         vertex 4.875000e+02 -5.250000e+02 -6.150000e+02
         vertex 6.000000e+02 -1.125000e+03 -6.150000e+02
      endloop
   endfacet
   facet normal -0.000000e+00 0.000000e+00 1.000000e+00
      outer loop
         vertex -4.875000e+02 2.250000e+02 -3.150000e+02
         vertex -4.875000e+02 -5.250000e+02 -3.150000e+02
         vertex 4.875000e+02 2.250000e+02 -3.150000e+02
      endloop
   endfacet
   facet normal 0.000000e+00 0.000000e+00 1.000000e+00
      outer loop
         vertex 4.875000e+02 2.250000e+02 -3.150000e+02
         vertex -4.875000e+02 -5.250000e+02 -3.150000e+02
         vertex 4.875000e+02 -5.250000e+02 -3.150000e+02
      endloop
   endfacet
   facet normal 0.000000e+00 1.000000e+00 0.000000e+00
      outer loop
         vertex 6.000000e+02 -5.250000e+02 -6.150000e+02
         vertex 4.875000e+02 -5.250000e+02 -6.150000e+02
         vertex 4.875000e+02 -5.250000e+02 -3.150000e+02
      endloop
   endfacet
   facet normal 0.000000e+00 1.000000e+00 -0.000000e+00
      outer loop
         vertex -4.875000e+02 -5.250000e+02 -6.150000e+02
         vertex -6.000000e+02 -5.250000e+02 -6.150000e+02
         vertex -4.875000e+02 -5.250000e+02 -3.150000e+02
      endloop
   endfacet
   facet normal 0.000000e+00 1.000000e+00 0.000000e+00
      outer loop
         vertex -4.875000e+02 -5.250000e+02 -3.150000e+02
         vertex -6.000000e+02 -5.250000e+02 -6.150000e+02
         vertex -6.000000e+02 -5.250000e+02 6.000000e+01
      endloop
   endfacet
   facet normal 0.000000e+00 1.000000e+00 -0.000000e+00
      outer loop
         vertex -4.875000e+02 -5.250000e+02 -3.150000e+02
         vertex -6.000000e+02 -5.250000e+02 6.000000e+01
         vertex 4.875000e+02 -5.250000e+02 -3.150000e+02
      endloop
   endfacet
   facet normal 0.000000e+00 1.000000e+00 -0.000000e+00
      outer loop
         vertex 4.875000e+02 -5.250000e+02 -3.150000e+02
         vertex -6.000000e+02 -5.250000e+02 6.000000e+01
         vertex 6.000000e+02 -5.250000e+02 6.000000e+01
      endloop
   endfacet
   facet normal -0.000000e+00 1.000000e+00 0.000000e+00
      outer loop
         vertex 4.875000e+02 -5.250000e+02 -3.150000e+02
         vertex 6.000000e+02 -5.250000e+02 6.000000e+01
         vertex 6.000000e+02 -5.250000e+02 -6.150000e+02
      endloop
   endfacet
   facet normal -1.000000e+00 0.000000e+00 0.000000e+00
      outer loop
         vertex -6.000000e+02 -6.450000e+02 6.000000e+01
         vertex -6.000000e+02 -5.250000e+02 6.000000e+01
         vertex -6.000000e+02 -5.250000e+02 -6.150000e+02
      endloop
   endfacet
   facet normal -1.000000e+00 0.000000e+00 0.000000e+00
      outer loop
         vertex -6.000000e+02 -6.750000e+02 6.000000e+01
         vertex -6.000000e+02 -6.750000e+02 9.000000e+01
         vertex -6.000000e+02 -6.450000e+02 9.000000e+01
      endloop
   endfacet
   facet normal -1.000000e+00 0.000000e+00 0.000000e+00
      outer loop
         vertex -6.000000e+02 -1.125000e+03 -6.150000e+02
         vertex -6.000000e+02 -1.125000e+03 6.000000e+01
         vertex -6.000000e+02 -5.250000e+02 -6.150000e+02
      endloop
   endfacet
   facet normal -1.000000e+00 0.000000e+00 0.000000e+00
      outer loop
         vertex -6.000000e+02 -5.250000e+02 -6.150000e+02
         vertex -6.000000e+02 -1.125000e+03 6.000000e+01
         vertex -6.000000e+02 -1.005000e+03 6.000000e+01
      endloop
   endfacet
   facet normal -1.000000e+00 0.000000e+00 -0.000000e+00
      outer loop
         vertex -6.000000e+02 -6.450000e+02 9.000000e+01
         vertex -6.000000e+02 -6.450000e+02 6.000000e+01
         vertex -6.000000e+02 -6.750000e+02 6.000000e+01
      endloop
   endfacet
   facet normal -1.000000e+00 0.000000e+00 0.000000e+00
      outer loop
         vertex -6.000000e+02 -6.750000e+02 6.000000e+01
         vertex -6.000000e+02 -6.450000e+02 6.000000e+01
         vertex -6.000000e+02 -5.250000e+02 -6.150000e+02
      endloop
   endfacet
   facet normal -1.000000e+00 -0.000000e+00 -0.000000e+00
      outer loop
         vertex -6.000000e+02 -6.750000e+02 6.000000e+01
         vertex -6.000000e+02 -5.250000e+02 -6.150000e+02
         vertex -6.000000e+02 -9.750000e+02 6.000000e+01
      endloop
   endfacet
   facet normal -1.000000e+00 -0.000000e+00 -0.000000e+00
      outer loop
         vertex -6.000000e+02 -9.750000e+02 6.000000e+01
         vertex -6.000000e+02 -5.250000e+02 -6.150000e+02
         vertex -6.000000e+02 -1.005000e+03 6.000000e+01
      endloop
   endfacet
   facet normal -1.000000e+00 0.000000e+00 0.000000e+00
      outer loop
         vertex -6.000000e+02 -9.750000e+02 6.000000e+01
         vertex -6.000000e+02 -1.005000e+03 6.000000e+01
         vertex -6.000000e+02 -9.750000e+02 9.000000e+01
      endloop
   endfacet
   facet normal -1.000000e+00 -0.000000e+00 0.000000e+00
      outer loop
         vertex -6.000000e+02 -9.750000e+02 9.000000e+01
         vertex -6.000000e+02 -1.005000e+03 6.000000e+01
         vertex -6.000000e+02 -1.005000e+03 9.000000e+01
      endloop
   endfacet
   facet normal 1.000000e+00 0.000000e+00 0.000000e+00
      outer loop
         vertex 6.000000e+02 -6.750000e+02 6.000000e+01
         vertex 6.000000e+02 -9.750000e+02 6.000000e+01
         vertex 6.000000e+02 -1.125000e+03 -6.150000e+02
      endloop
   endfacet
   facet normal 1.000000e+00 -0.000000e+00 0.000000e+00
      outer loop
         vertex 6.000000e+02 -1.125000e+03 6.000000e+01
         vertex 6.000000e+02 -1.125000e+03 -6.150000e+02
         vertex 6.000000e+02 -1.005000e+03 6.000000e+01
      endloop
   endfacet
   facet normal 1.000000e+00 -0.000000e+00 0.000000e+00
      outer loop
         vertex 6.000000e+02 -1.005000e+03 6.000000e+01
         vertex 6.000000e+02 -1.125000e+03 -6.150000e+02
         vertex 6.000000e+02 -9.750000e+02 6.000000e+01
      endloop
   endfacet
   facet normal 1.000000e+00 0.000000e+00 0.000000e+00
      outer loop
         vertex 6.000000e+02 -1.005000e+03 6.000000e+01
         vertex 6.000000e+02 -9.750000e+02 6.000000e+01
         vertex 6.000000e+02 -1.005000e+03 9.000000e+01
      endloop
   endfacet
   facet normal 1.000000e+00 -0.000000e+00 0.000000e+00
      outer loop
         vertex 6.000000e+02 -1.005000e+03 9.000000e+01
         vertex 6.000000e+02 -9.750000e+02 6.000000e+01
         vertex 6.000000e+02 -9.750000e+02 9.000000e+01
      endloop
   endfacet
   facet normal 1.000000e+00 0.000000e+00 -0.000000e+00
      outer loop
         vertex 6.000000e+02 -5.250000e+02 -6.150000e+02
         vertex 6.000000e+02 -5.250000e+02 6.000000e+01
         vertex 6.000000e+02 -6.450000e+02 6.000000e+01
      endloop
   endfacet
   facet normal 1.000000e+00 0.000000e+00 0.000000e+00
      outer loop
         vertex 6.000000e+02 -6.450000e+02 9.000000e+01
         vertex 6.000000e+02 -6.750000e+02 9.000000e+01
         vertex 6.000000e+02 -6.450000e+02 6.000000e+01
      endloop
   endfacet
   facet normal 1.000000e+00 0.000000e+00 0.000000e+00
      outer loop
         vertex 6.000000e+02 -6.450000e+02 6.000000e+01
         vertex 6.000000e+02 -6.750000e+02 9.000000e+01
         vertex 6.000000e+02 -6.750000e+02 6.000000e+01
      endloop
   endfacet
   facet normal 1.000000e+00 0.000000e+00 0.000000e+00
      outer loop
         vertex 6.000000e+02 -6.450000e+02 6.000000e+01
         vertex 6.000000e+02 -6.750000e+02 6.000000e+01
         vertex 6.000000e+02 -5.250000e+02 -6.150000e+02
      endloop
   endfacet
   facet normal 1.000000e+00 0.000000e+00 0.000000e+00
      outer loop
         vertex 6.000000e+02 -5.250000e+02 -6.150000e+02
         vertex 6.000000e+02 -6.750000e+02 6.000000e+01
         vertex 6.000000e+02 -1.125000e+03 -6.150000e+02
      endloop
   endfacet
   facet normal 0.000000e+00 -0.000000e+00 1.000000e+00
      outer loop
         vertex 6.000000e+02 -9.750000e+02 6.000000e+01
         vertex 6.000000e+02 -6.750000e+02 6.000000e+01
         vertex -6.000000e+02 -9.750000e+02 6.000000e+01
      endloop
   endfacet
   facet normal 0.000000e+00 0.000000e+00 1.000000e+00
      outer loop
         vertex -6.000000e+02 -9.750000e+02 6.000000e+01
         vertex 6.000000e+02 -6.750000e+02 6.000000e+01
         vertex -6.000000e+02 -6.750000e+02 6.000000e+01
      endloop
   endfacet
   facet normal 0.000000e+00 -1.000000e+00 0.000000e+00
      outer loop
         vertex 6.000000e+02 -1.125000e+03 -6.150000e+02
         vertex 6.000000e+02 -1.125000e+03 6.000000e+01
         vertex -6.000000e+02 -1.125000e+03 -6.150000e+02
      endloop
   endfacet
   facet normal 0.000000e+00 -1.000000e+00 0.000000e+00
      outer loop
         vertex -6.000000e+02 -1.125000e+03 -6.150000e+02
         vertex 6.000000e+02 -1.125000e+03 6.000000e+01
         vertex -6.000000e+02 -1.125000e+03 6.000000e+01
      endloop
   endfacet
   facet normal 0.000000e+00 1.000000e+00 0.000000e+00
      outer loop
         vertex 6.000000e+02 -6.450000e+02 9.000000e+01
         vertex 6.000000e+02 -6.450000e+02 6.000000e+01
         vertex -6.000000e+02 -6.450000e+02 9.000000e+01
      endloop
   endfacet
   facet normal 0.000000e+00 1.000000e+00 0.000000e+00
      outer loop
         vertex -6.000000e+02 -6.450000e+02 9.000000e+01
         vertex 6.000000e+02 -6.450000e+02 6.000000e+01
         vertex -6.000000e+02 -6.450000e+02 6.000000e+01
      endloop
   endfacet
   facet normal 0.000000e+00 -0.000000e+00 1.000000e+00
      outer loop
         vertex 6.000000e+02 -6.750000e+02 9.000000e+01
         vertex 6.000000e+02 -6.450000e+02 9.000000e+01
         vertex -6.000000e+02 -6.750000e+02 9.000000e+01
      endloop
   endfacet
   facet normal 0.000000e+00 0.000000e+00 1.000000e+00
      outer loop
         vertex -6.000000e+02 -6.750000e+02 9.000000e+01
         vertex 6.000000e+02 -6.450000e+02 9.000000e+01
         vertex -6.000000e+02 -6.450000e+02 9.000000e+01
      endloop
   endfacet
   facet normal 0.000000e+00 -1.000000e+00 0.000000e+00
      outer loop
         vertex 6.000000e+02 -6.750000e+02 6.000000e+01
         vertex 6.000000e+02 -6.750000e+02 9.000000e+01
         vertex -6.000000e+02 -6.750000e+02 6.000000e+01
      endloop
   endfacet
   facet normal 0.000000e+00 -1.000000e+00 0.000000e+00
      outer loop
         vertex -6.000000e+02 -6.750000e+02 6.000000e+01
         vertex 6.000000e+02 -6.750000e+02 9.000000e+01
         vertex -6.000000e+02 -6.750000e+02 9.000000e+01
      endloop
   endfacet
   facet normal 0.000000e+00 -1.000000e+00 0.000000e+00
      outer loop
         vertex 6.000000e+02 -1.005000e+03 6.000000e+01
         vertex 6.000000e+02 -1.005000e+03 9.000000e+01
         vertex -6.000000e+02 -1.005000e+03 6.000000e+01
      endloop
   endfacet
   facet normal 0.000000e+00 -1.000000e+00 0.000000e+00
      outer loop
         vertex -6.000000e+02 -1.005000e+03 6.000000e+01
         vertex 6.000000e+02 -1.005000e+03 9.000000e+01
         vertex -6.000000e+02 -1.005000e+03 9.000000e+01
      endloop
   endfacet
   facet normal 0.000000e+00 1.000000e+00 0.000000e+00
      outer loop
         vertex 6.000000e+02 -9.750000e+02 9.000000e+01
         vertex 6.000000e+02 -9.750000e+02 6.000000e+01
         vertex -6.000000e+02 -9.750000e+02 9.000000e+01
      endloop
   endfacet
   facet normal 0.000000e+00 1.000000e+00 0.000000e+00
      outer loop
         vertex -6.000000e+02 -9.750000e+02 9.000000e+01
         vertex 6.000000e+02 -9.750000e+02 6.000000e+01
         vertex -6.000000e+02 -9.750000e+02 6.000000e+01
      endloop
   endfacet
   facet normal 0.000000e+00 -0.000000e+00 1.000000e+00
      outer loop
         vertex 6.000000e+02 -1.005000e+03 9.000000e+01
         vertex 6.000000e+02 -9.750000e+02 9.000000e+01
         vertex -6.000000e+02 -1.005000e+03 9.000000e+01
      endloop
   endfacet
   facet normal 0.000000e+00 0.000000e+00 1.000000e+00
      outer loop
         vertex -6.000000e+02 -1.005000e+03 9.000000e+01
         vertex 6.000000e+02 -9.750000e+02 9.000000e+01
         vertex -6.000000e+02 -9.750000e+02 9.000000e+01
      endloop
   endfacet
endsolid