solid on-y
   facet normal 0.000000e+00 1.000000e+00 0.000000e+00
      outer loop
         vertex 2.625000e+02 -3.450000e+02 2.550000e+02
         vertex 1.800000e+02 -3.450000e+02 2.550000e+02
         vertex 1.800000e+02 -3.450000e+02 2.850000e+02
      endloop
   endfacet
   facet normal 0.000000e+00 1.000000e+00 0.000000e+00
      outer loop
         vertex 1.500000e+02 -3.450000e+02 2.850000e+02
         vertex 1.500000e+02 -3.450000e+02 9.300000e+02
         vertex 1.800000e+02 -3.450000e+02 2.850000e+02
      endloop
   endfacet
   facet normal 0.000000e+00 1.000000e+00 -0.000000e+00
      outer loop
         vertex 1.800000e+02 -3.450000e+02 2.850000e+02
         vertex 1.500000e+02 -3.450000e+02 9.300000e+02
         vertex 2.625000e+02 -3.450000e+02 9.300000e+02
      endloop
   endfacet
   facet normal -0.000000e+00 1.000000e+00 0.000000e+00
      outer loop
         vertex 1.800000e+02 -3.450000e+02 2.850000e+02
         vertex 2.625000e+02 -3.450000e+02 9.300000e+02
         vertex 2.625000e+02 -3.450000e+02 2.550000e+02
      endloop
   endfacet
   facet normal 0.000000e+00 1.000000e+00 0.000000e+00
      outer loop
         vertex -1.200000e+02 -3.450000e+02 2.550000e+02
         vertex -1.200000e+02 -3.450000e+02 9.300000e+02
         vertex 1.200000e+02 -3.450000e+02 2.550000e+02
      endloop
   endfacet
   facet normal 0.000000e+00 1.000000e+00 -0.000000e+00
      outer loop
         vertex 1.200000e+02 -3.450000e+02 2.550000e+02
         vertex -1.200000e+02 -3.450000e+02 9.300000e+02
         vertex 1.200000e+02 -3.450000e+02 9.300000e+02
      endloop
   endfacet
   facet normal 0.000000e+00 0.000000e+00 -1.000000e+00
      outer loop
         vertex -1.500000e+02 -3.150000e+02 2.550000e+02
         vertex -1.200000e+02 -3.150000e+02 2.550000e+02
         vertex -1.200000e+02 -3.450000e+02 2.550000e+02
      endloop
   endfacet
   facet normal 0.000000e+00 0.000000e+00 -1.000000e+00
      outer loop
         vertex 1.200000e+02 -3.150000e+02 2.550000e+02
         vertex 1.500000e+02 -3.150000e+02 2.550000e+02
         vertex 1.200000e+02 -3.450000e+02 2.550000e+02
      endloop
   endfacet
   facet normal 0.000000e+00 0.000000e+00 -1.000000e+00
      outer loop
         vertex 1.200000e+02 -3.450000e+02 2.550000e+02
         vertex 1.500000e+02 -3.150000e+02 2.550000e+02
         vertex 1.500000e+02 -1.275000e+03 2.550000e+02
      endloop
   endfacet
   facet normal -0.000000e+00 -0.000000e+00 -1.000000e+00
      outer loop
         vertex 1.200000e+02 -3.450000e+02 2.550000e+02
         vertex 1.500000e+02 -1.275000e+03 2.550000e+02
         vertex -1.200000e+02 -3.450000e+02 2.550000e+02
      endloop
   endfacet
   facet normal 0.000000e+00 -0.000000e+00 -1.000000e+00
      outer loop
         vertex -1.200000e+02 -3.450000e+02 2.550000e+02
         vertex 1.500000e+02 -1.275000e+03 2.550000e+02
         vertex -1.500000e+02 -1.275000e+03 2.550000e+02
      endloop
   endfacet
   facet normal -0.000000e+00 0.000000e+00 -1.000000e+00
      outer loop
         vertex -1.200000e+02 -3.450000e+02 2.550000e+02
         vertex -1.500000e+02 -1.275000e+03 2.550000e+02
         vertex -1.500000e+02 -3.150000e+02 2.550000e+02
      endloop
   endfacet
   facet normal -1.000000e+00 0.000000e+00 0.000000e+00
      outer loop
         vertex -1.500000e+02 -3.450000e+02 9.300000e+02
         vertex -1.500000e+02 -3.150000e+02 9.300000e+02
         vertex -1.500000e+02 -3.450000e+02 2.850000e+02
      endloop
   endfacet
   facet normal -1.000000e+00 0.000000e+00 0.000000e+00
      outer loop
         vertex -1.500000e+02 -3.450000e+02 2.850000e+02
         vertex -1.500000e+02 -3.150000e+02 9.300000e+02
         vertex -1.500000e+02 -3.150000e+02 2.550000e+02
      endloop
   endfacet
   facet normal -1.000000e+00 -0.000000e+00 -0.000000e+00
      outer loop
         vertex -1.500000e+02 -3.450000e+02 2.850000e+02
         vertex -1.500000e+02 -3.150000e+02 2.550000e+02
         vertex -1.500000e+02 -1.275000e+03 2.850000e+02
      endloop
   endfacet
   facet normal -1.000000e+00 0.000000e+00 0.000000e+00
      outer loop
         vertex -1.500000e+02 -1.275000e+03 2.850000e+02
         vertex -1.500000e+02 -3.150000e+02 2.550000e+02
         vertex -1.500000e+02 -1.275000e+03 2.550000e+02
      endloop
   endfacet
   facet normal 0.000000e+00 0.000000e+00 -1.000000e+00
      outer loop
         vertex -1.800000e+02 -1.275000e+03 2.850000e+02
         vertex -1.800000e+02 -3.450000e+02 2.850000e+02
         vertex -1.500000e+02 -1.275000e+03 2.850000e+02
      endloop
   endfacet
   facet normal 0.000000e+00 0.000000e+00 -1.000000e+00
      outer loop
         vertex -1.500000e+02 -1.275000e+03 2.850000e+02
         vertex -1.800000e+02 -3.450000e+02 2.850000e+02
         vertex -1.500000e+02 -3.450000e+02 2.850000e+02
      endloop
   endfacet
   facet normal 1.000000e+00 0.000000e+00 0.000000e+00
      outer loop
         vertex -1.800000e+02 -1.275000e+03 2.550000e+02
         vertex -1.800000e+02 -3.450000e+02 2.550000e+02
         vertex -1.800000e+02 -1.275000e+03 2.850000e+02
      endloop
   endfacet
   facet normal 1.000000e+00 -0.000000e+00 0.000000e+00
      outer loop
         vertex -1.800000e+02 -1.275000e+03 2.850000e+02
         vertex -1.800000e+02 -3.450000e+02 2.550000e+02
         vertex -1.800000e+02 -3.450000e+02 2.850000e+02
      endloop
   endfacet
   facet normal 0.000000e+00 0.000000e+00 -1.000000e+00
      outer loop
         vertex -2.625000e+02 -1.275000e+03 2.550000e+02
         vertex -2.625000e+02 -3.450000e+02 2.550000e+02
         vertex -1.800000e+02 -1.275000e+03 2.550000e+02
      endloop
   endfacet
   facet normal 0.000000e+00 0.000000e+00 -1.000000e+00
      outer loop
         vertex -1.800000e+02 -1.275000e+03 2.550000e+02
         vertex -2.625000e+02 -3.450000e+02 2.550000e+02
         vertex -1.800000e+02 -3.450000e+02 2.550000e+02
      endloop
   endfacet
   facet normal -1.000000e+00 0.000000e+00 0.000000e+00
      outer loop
         vertex -2.625000e+02 -1.275000e+03 2.550000e+02
         vertex -2.625000e+02 -1.275000e+03 4.800000e+02
         vertex -2.625000e+02 -3.450000e+02 2.550000e+02
      endloop
   endfacet
   facet normal -1.000000e+00 0.000000e+00 0.000000e+00
      outer loop
         vertex -2.625000e+02 -3.450000e+02 2.550000e+02
         vertex -2.625000e+02 -1.275000e+03 4.800000e+02
         vertex -2.625000e+02 -6.000000e+02 9.300000e+02
      endloop
   endfacet
   facet normal -1.000000e+00 0.000000e+00 0.000000e+00
      outer loop
         vertex -2.625000e+02 -3.450000e+02 2.550000e+02
         vertex -2.625000e+02 -6.000000e+02 9.300000e+02
         vertex -2.625000e+02 -3.450000e+02 9.300000e+02
      endloop
   endfacet
   facet normal 0.000000e+00 0.000000e+00 1.000000e+00
      outer loop
         vertex -1.500000e+02 -3.450000e+02 9.300000e+02
         vertex -2.625000e+02 -3.450000e+02 9.300000e+02
         vertex -2.625000e+02 -6.000000e+02 9.300000e+02
      endloop
   endfacet
   facet normal 0.000000e+00 -0.000000e+00 1.000000e+00
      outer loop
         vertex 2.625000e+02 -6.000000e+02 9.300000e+02
         vertex 2.625000e+02 -3.450000e+02 9.300000e+02
         vertex -2.625000e+02 -6.000000e+02 9.300000e+02
      endloop
   endfacet
   facet normal 0.000000e+00 0.000000e+00 1.000000e+00
      outer loop
         vertex -2.625000e+02 -6.000000e+02 9.300000e+02
         vertex 2.625000e+02 -3.450000e+02 9.300000e+02
         vertex 1.500000e+02 -3.450000e+02 9.300000e+02
      endloop
   endfacet
   facet normal 0.000000e+00 -0.000000e+00 1.000000e+00
      outer loop
         vertex -1.200000e+02 -3.450000e+02 9.300000e+02
         vertex -1.200000e+02 -3.150000e+02 9.300000e+02
         vertex -1.500000e+02 -3.150000e+02 9.300000e+02
      endloop
   endfacet
   facet normal 0.000000e+00 0.000000e+00 1.000000e+00
      outer loop
         vertex -1.500000e+02 -3.150000e+02 9.300000e+02
         vertex -1.500000e+02 -3.450000e+02 9.300000e+02
         vertex -1.200000e+02 -3.450000e+02 9.300000e+02
      endloop
   endfacet
   facet normal 0.000000e+00 0.000000e+00 1.000000e+00
      outer loop
         vertex -1.200000e+02 -3.450000e+02 9.300000e+02
         vertex -1.500000e+02 -3.450000e+02 9.300000e+02
         vertex -2.625000e+02 -6.000000e+02 9.300000e+02
      endloop
   endfacet
   facet normal -0.000000e+00 0.000000e+00 1.000000e+00
      outer loop
         vertex -1.200000e+02 -3.450000e+02 9.300000e+02
         vertex -2.625000e+02 -6.000000e+02 9.300000e+02
         vertex 1.200000e+02 -3.450000e+02 9.300000e+02
      endloop
   endfacet
   facet normal -0.000000e+00 0.000000e+00 1.000000e+00
      outer loop
         vertex 1.200000e+02 -3.450000e+02 9.300000e+02
         vertex -2.625000e+02 -6.000000e+02 9.300000e+02
         vertex 1.500000e+02 -3.450000e+02 9.300000e+02
      endloop
   endfacet
   facet normal 0.000000e+00 0.000000e+00 1.000000e+00
      outer loop
         vertex 1.200000e+02 -3.450000e+02 9.300000e+02
         vertex 1.500000e+02 -3.450000e+02 9.300000e+02
         vertex 1.200000e+02 -3.150000e+02 9.300000e+02
      endloop
   endfacet
   facet normal -0.000000e+00 0.000000e+00 1.000000e+00
      outer loop
         vertex 1.200000e+02 -3.150000e+02 9.300000e+02
         vertex 1.500000e+02 -3.450000e+02 9.300000e+02
         vertex 1.500000e+02 -3.150000e+02 9.300000e+02
      endloop
   endfacet
   facet normal 1.000000e+00 -0.000000e+00 0.000000e+00
      outer loop
         vertex 2.625000e+02 -1.275000e+03 4.800000e+02
         vertex 2.625000e+02 -1.275000e+03 2.550000e+02
         vertex 2.625000e+02 -6.000000e+02 9.300000e+02
      endloop
   endfacet
   facet normal 1.000000e+00 0.000000e+00 0.000000e+00
      outer loop
         vertex 2.625000e+02 -6.000000e+02 9.300000e+02
         vertex 2.625000e+02 -1.275000e+03 2.550000e+02
         vertex 2.625000e+02 -3.450000e+02 2.550000e+02
      endloop
   endfacet
   facet normal 1.000000e+00 -0.000000e+00 0.000000e+00
      outer loop
         vertex 2.625000e+02 -6.000000e+02 9.300000e+02
         vertex 2.625000e+02 -3.450000e+02 2.550000e+02
         vertex 2.625000e+02 -3.450000e+02 9.300000e+02
      endloop
   endfacet
   facet normal 0.000000e+00 0.000000e+00 -1.000000e+00
      outer loop
         vertex 1.800000e+02 -1.275000e+03 2.550000e+02
         vertex 1.800000e+02 -3.450000e+02 2.550000e+02
         vertex 2.625000e+02 -1.275000e+03 2.550000e+02
      endloop
   endfacet
   facet normal 0.000000e+00 0.000000e+00 -1.000000e+00
      outer loop
         vertex 2.625000e+02 -1.275000e+03 2.550000e+02
         vertex 1.800000e+02 -3.450000e+02 2.550000e+02
         vertex 2.625000e+02 -3.450000e+02 2.550000e+02
      endloop
   endfacet
   facet normal -1.000000e+00 0.000000e+00 0.000000e+00
      outer loop
         vertex 1.800000e+02 -1.275000e+03 2.850000e+02
         vertex 1.800000e+02 -3.450000e+02 2.850000e+02
         vertex 1.800000e+02 -1.275000e+03 2.550000e+02
      endloop
   endfacet
   facet normal -1.000000e+00 0.000000e+00 0.000000e+00
      outer loop
         vertex 1.800000e+02 -1.275000e+03 2.550000e+02
         vertex 1.800000e+02 -3.450000e+02 2.850000e+02
         vertex 1.800000e+02 -3.450000e+02 2.550000e+02
      endloop
   endfacet
   facet normal 0.000000e+00 0.000000e+00 -1.000000e+00
      outer loop
         vertex 1.500000e+02 -1.275000e+03 2.850000e+02
         vertex 1.500000e+02 -3.450000e+02 2.850000e+02
         vertex 1.800000e+02 -1.275000e+03 2.850000e+02
      endloop
   endfacet
   facet normal 0.000000e+00 0.000000e+00 -1.000000e+00
      outer loop
         vertex 1.800000e+02 -1.275000e+03 2.850000e+02
         vertex 1.500000e+02 -3.450000e+02 2.850000e+02
         vertex 1.800000e+02 -3.450000e+02 2.850000e+02
      endloop
   endfacet
   facet normal 1.000000e+00 -0.000000e+00 0.000000e+00
      outer loop
         vertex 1.500000e+02 -1.275000e+03 2.850000e+02
         vertex 1.500000e+02 -1.275000e+03 2.550000e+02
         vertex 1.500000e+02 -3.450000e+02 2.850000e+02
      endloop
   endfacet
   facet normal 1.000000e+00 0.000000e+00 0.000000e+00
      outer loop
         vertex 1.500000e+02 -3.450000e+02 2.850000e+02
         vertex 1.500000e+02 -1.275000e+03 2.550000e+02
         vertex 1.500000e+02 -3.150000e+02 2.550000e+02
      endloop
   endfacet
   facet normal 1.000000e+00 -0.000000e+00 0.000000e+00
      outer loop
         vertex 1.500000e+02 -3.450000e+02 2.850000e+02
         vertex 1.500000e+02 -3.150000e+02 2.550000e+02
         vertex 1.500000e+02 -3.450000e+02 9.300000e+02
      endloop
   endfacet
   facet normal 1.000000e+00 -0.000000e+00 0.000000e+00
      outer loop
         vertex 1.500000e+02 -3.450000e+02 9.300000e+02
         vertex 1.500000e+02 -3.150000e+02 2.550000e+02
         vertex 1.500000e+02 -3.150000e+02 9.300000e+02
      endloop
   endfacet
   facet normal 0.000000e+00 1.000000e+00 -0.000000e+00
      outer loop
         vertex -1.800000e+02 -3.450000e+02 2.550000e+02
         vertex -2.625000e+02 -3.450000e+02 2.550000e+02
         vertex -1.800000e+02 -3.450000e+02 2.850000e+02
      endloop
   endfacet
   facet normal 0.000000e+00 1.000000e+00 0.000000e+00
      outer loop
         vertex -1.800000e+02 -3.450000e+02 2.850000e+02
         vertex -2.625000e+02 -3.450000e+02 2.550000e+02
         vertex -2.625000e+02 -3.450000e+02 9.300000e+02
      endloop
   endfacet
   facet normal 0.000000e+00 1.000000e+00 -0.000000e+00
      outer loop
         vertex -1.800000e+02 -3.450000e+02 2.850000e+02
         vertex -2.625000e+02 -3.450000e+02 9.300000e+02
         vertex -1.500000e+02 -3.450000e+02 2.850000e+02
      endloop
   endfacet
   facet normal 0.000000e+00 1.000000e+00 -0.000000e+00
      outer loop
         vertex -1.500000e+02 -3.450000e+02 2.850000e+02
         vertex -2.625000e+02 -3.450000e+02 9.300000e+02
         vertex -1.500000e+02 -3.450000e+02 9.300000e+02
      endloop
   endfacet
   facet normal 0.000000e+00 -1.000000e+00 0.000000e+00
      outer loop
         vertex -2.625000e+02 -1.275000e+03 2.550000e+02
         vertex -1.800000e+02 -1.275000e+03 2.550000e+02
         vertex -2.625000e+02 -1.275000e+03 4.800000e+02
      endloop
   endfacet
   facet normal 0.000000e+00 -1.000000e+00 0.000000e+00
      outer loop
         vertex -2.625000e+02 -1.275000e+03 4.800000e+02
         vertex -1.800000e+02 -1.275000e+03 2.550000e+02
         vertex -1.800000e+02 -1.275000e+03 2.850000e+02
      endloop
   endfacet
   facet normal 0.000000e+00 -1.000000e+00 0.000000e+00
      outer loop
         vertex -2.625000e+02 -1.275000e+03 4.800000e+02
         vertex -1.800000e+02 -1.275000e+03 2.850000e+02
         vertex 2.625000e+02 -1.275000e+03 4.800000e+02
      endloop
   endfacet
   facet normal 0.000000e+00 -1.000000e+00 0.000000e+00
      outer loop
         vertex 2.625000e+02 -1.275000e+03 4.800000e+02
         vertex -1.800000e+02 -1.275000e+03 2.850000e+02
         vertex -1.500000e+02 -1.275000e+03 2.850000e+02
      endloop
   endfacet
   facet normal 0.000000e+00 -1.000000e+00 0.000000e+00
      outer loop
         vertex 1.800000e+02 -1.275000e+03 2.550000e+02
         vertex 2.625000e+02 -1.275000e+03 2.550000e+02
         vertex 1.800000e+02 -1.275000e+03 2.850000e+02
      endloop
   endfacet
   facet normal 0.000000e+00 -1.000000e+00 0.000000e+00
      outer loop
         vertex 1.800000e+02 -1.275000e+03 2.850000e+02
         vertex 2.625000e+02 -1.275000e+03 2.550000e+02
         vertex 2.625000e+02 -1.275000e+03 4.800000e+02
      endloop
   endfacet
   facet normal 0.000000e+00 -1.000000e+00 0.000000e+00
      outer loop
         vertex 1.800000e+02 -1.275000e+03 2.850000e+02
         vertex 2.625000e+02 -1.275000e+03 4.800000e+02
         vertex 1.500000e+02 -1.275000e+03 2.850000e+02
      endloop
   endfacet
   facet normal 0.000000e+00 -1.000000e+00 0.000000e+00
      outer loop
         vertex 1.500000e+02 -1.275000e+03 2.850000e+02
         vertex 2.625000e+02 -1.275000e+03 4.800000e+02
         vertex -1.500000e+02 -1.275000e+03 2.850000e+02
      endloop
   endfacet
   facet normal -0.000000e+00 -1.000000e+00 -0.000000e+00
      outer loop
         vertex 1.500000e+02 -1.275000e+03 2.850000e+02
         vertex -1.500000e+02 -1.275000e+03 2.850000e+02
         vertex 1.500000e+02 -1.275000e+03 2.550000e+02
      endloop
   endfacet
   facet normal 0.000000e+00 -1.000000e+00 0.000000e+00
      outer loop
         vertex 1.500000e+02 -1.275000e+03 2.550000e+02
         vertex -1.500000e+02 -1.275000e+03 2.850000e+02
         vertex -1.500000e+02 -1.275000e+03 2.550000e+02
      endloop
   endfacet
   facet normal 0.000000e+00 -5.547002e-01 8.320503e-01
      outer loop
         vertex -2.625000e+02 -1.275000e+03 4.800000e+02
         vertex 2.625000e+02 -1.275000e+03 4.800000e+02
         vertex -2.625000e+02 -6.000000e+02 9.300000e+02
      endloop
   endfacet
   facet normal 0.000000e+00 -5.547002e-01 8.320503e-01
      outer loop
         vertex -2.625000e+02 -6.000000e+02 9.300000e+02
         vertex 2.625000e+02 -1.275000e+03 4.800000e+02
         vertex 2.625000e+02 -6.000000e+02 9.300000e+02
      endloop
   endfacet
   facet normal 0.000000e+00 1.000000e+00 -0.000000e+00
      outer loop
         vertex -1.200000e+02 -3.150000e+02 2.550000e+02
         vertex -1.500000e+02 -3.150000e+02 2.550000e+02
         vertex -1.200000e+02 -3.150000e+02 9.300000e+02
      endloop
   endfacet
   facet normal 0.000000e+00 1.000000e+00 0.000000e+00
      outer loop
         vertex -1.200000e+02 -3.150000e+02 9.300000e+02
         vertex -1.500000e+02 -3.150000e+02 2.550000e+02
         vertex -1.500000e+02 -3.150000e+02 9.300000e+02
      endloop
   endfacet
   facet normal 1.000000e+00 0.000000e+00 0.000000e+00
      outer loop
         vertex -1.200000e+02 -3.450000e+02 2.550000e+02
         vertex -1.200000e+02 -3.150000e+02 2.550000e+02
         vertex -1.200000e+02 -3.450000e+02 9.300000e+02
      endloop
   endfacet
   facet normal 1.000000e+00 -0.000000e+00 0.000000e+00
      outer loop
         vertex -1.200000e+02 -3.450000e+02 9.300000e+02
         vertex -1.200000e+02 -3.150000e+02 2.550000e+02
         vertex -1.200000e+02 -3.150000e+02 9.300000e+02
      endloop
   endfacet
   facet normal 0.000000e+00 1.000000e+00 -0.000000e+00
      outer loop
         vertex 1.500000e+02 -3.150000e+02 2.550000e+02
         vertex 1.200000e+02 -3.150000e+02 2.550000e+02
         vertex 1.500000e+02 -3.150000e+02 9.300000e+02
      endloop
   endfacet
   facet normal 0.000000e+00 1.000000e+00 0.000000e+00
      outer loop
         vertex 1.500000e+02 -3.150000e+02 9.300000e+02
         vertex 1.200000e+02 -3.150000e+02 2.550000e+02
         vertex 1.200000e+02 -3.150000e+02 9.300000e+02
      endloop
   endfacet
   facet normal -1.000000e+00 0.000000e+00 0.000000e+00
      outer loop
         vertex 1.200000e+02 -3.150000e+02 2.550000e+02
         vertex 1.200000e+02 -3.450000e+02 2.550000e+02
         vertex 1.200000e+02 -3.150000e+02 9.300000e+02
      endloop
   endfacet
   facet normal -1.000000e+00 -0.000000e+00 0.000000e+00
      outer loop
         vertex 1.200000e+02 -3.150000e+02 9.300000e+02
         vertex 1.200000e+02 -3.450000e+02 2.550000e+02
         vertex 1.200000e+02 -3.450000e+02 9.300000e+02
      endloop
   endfacet
endsolid