<svg width="2641" height="1433" xmlns="http://www.w3.org/2000/svg" xmlns:xlink="http://www.w3.org/1999/xlink" xml:space="preserve" overflow="hidden"><g transform="translate(-418 -178)"><path d="M2798.5 448.302 2459.28 342.5 2123.5 625.5" stroke="#000000" stroke-width="6.875" stroke-miterlimit="8" stroke-dasharray="27.5 20.625" fill="none" fill-rule="evenodd"/><path d="M2799.5 1151.3 2459.78 1045.5 2123.5 1328.5" stroke="#000000" stroke-width="6.875" stroke-miterlimit="8" stroke-dasharray="27.5 20.625" fill="none" fill-rule="evenodd"/><path d="M2460.5 342.5 2460.5 732.226" stroke="#000000" stroke-width="6.875" stroke-miterlimit="8" stroke-dasharray="27.5 20.625" fill="none" fill-rule="evenodd"/><path d="M2139 1329C2327.96 1314.68 2516.92 1300.35 2613.47 1248.22 2710.03 1196.08 2757.59 1092.09 2718.34 1016.18 2679.08 940.262 2372.51 885.26 2377.96 792.731 2383.4 700.201 2567.2 580.601 2751 461" stroke="#0F9ED5" stroke-width="13.75" stroke-miterlimit="8" fill="none" fill-rule="evenodd"/><path d="M2460.5 1436.5 2123.5 1331.67 2123.5 627.5 2460.5 732.33Z" stroke="#000000" stroke-width="6.875" stroke-miterlimit="8" stroke-dasharray="27.5 20.625" fill="none" fill-rule="evenodd"/><path d="M0 338 286.613 0 986 0 699.387 338Z" stroke="#000000" stroke-width="6.875" stroke-miterlimit="8" stroke-dasharray="27.5 20.625" fill="none" fill-rule="evenodd" transform="matrix(-6.12323e-17 -1 -1 6.12323e-17 2798.5 1436.5)"/><path d="M6.6696-7.86537 136.21 101.981 122.871 117.712-6.6696 7.86537ZM141.684 79.5808 168.867 143.195 101.666 126.773Z" transform="matrix(1 0 0 -1 2460.5 1436.69)"/><path d="M2456.55 1447.02 2289.63 1394.75 2295.79 1375.07 2462.72 1427.33ZM2293.3 1417.51 2243.5 1369.5 2311.79 1358.47Z"/><path d="M10.3125-1.24984e-05 10.3128 246.211-10.3122 246.211-10.3125 1.24984e-05ZM30.9378 235.899 0.000360892 297.774-30.9372 235.899Z" transform="matrix(1 0 0 -1 2459.5 1437.27)"/><path d="M2433 1431C2433 1416.64 2444.64 1405 2459 1405 2473.36 1405 2485 1416.64 2485 1431 2485 1445.36 2473.36 1457 2459 1457 2444.64 1457 2433 1445.36 2433 1431Z" stroke="#000000" stroke-width="13.75" stroke-miterlimit="8" fill="#FFC000" fill-rule="evenodd"/><path d="M2485.63 1495.46C2483.62 1495.46 2481.89 1495.49 2480.42 1495.56L2473.81 1525.8 2476.61 1525.8C2481.51 1525.8 2485.29 1525.03 2487.94 1523.49 2490.59 1521.95 2492.61 1519.65 2494.01 1516.59 2495.4 1513.53 2496.1 1510.08 2496.1 1506.25 2496.1 1502.64 2495.25 1499.93 2493.55 1498.14 2491.85 1496.35 2489.21 1495.46 2485.63 1495.46ZM2459.63 1489.17 2486.44 1489.17C2490.19 1489.17 2493.24 1489.29 2495.57 1489.52 2497.89 1489.75 2500.16 1490.29 2502.36 1491.13 2504.56 1491.97 2506.42 1493.08 2507.92 1494.46 2509.42 1495.84 2510.57 1497.51 2511.36 1499.46 2512.14 1501.41 2512.54 1503.64 2512.54 1506.14 2512.54 1510.15 2511.8 1513.74 2510.31 1516.91 2508.82 1520.08 2506.72 1522.81 2504 1525.1 2501.28 1527.4 2497.81 1529.12 2493.61 1530.29 2489.4 1531.45 2484.7 1532.03 2479.51 1532.03L2477.95 1532.03C2475.76 1532.03 2473.94 1531.94 2472.47 1531.76L2468.87 1547.99C2468.62 1549.13 2468.44 1550.12 2468.33 1550.97 2468.23 1551.81 2468.17 1552.91 2468.17 1554.27 2468.17 1555.92 2468.59 1557.08 2469.44 1557.76 2470.28 1558.44 2471.59 1558.83 2473.38 1558.94L2472.63 1562.49 2444.86 1562.49 2445.61 1558.94C2447.66 1558.37 2449.16 1557.37 2450.13 1555.93 2451.09 1554.5 2452.01 1551.85 2452.87 1547.99L2462.64 1503.67C2463.11 1501.56 2463.34 1499.47 2463.34 1497.39 2463.34 1495.89 2462.99 1494.78 2462.29 1494.09 2461.59 1493.39 2460.46 1492.93 2458.88 1492.72Z" fill-rule="evenodd"/><text fill="#000000" fill-opacity="0" font-family="Arial,Arial_MSFontService,sans-serif" font-size="73.3154" x="2444.86" y="1553.32">ğ‘·</text><path d="M2540.59 1538.15C2538.77 1538.15 2537.24 1538.62 2536.02 1539.57 2534.8 1540.53 2533.83 1541.92 2533.11 1543.75 2532.39 1545.59 2531.89 1547.83 2531.59 1550.47 2531.29 1553.12 2531.14 1556.12 2531.14 1559.48 2531.14 1563.36 2531.33 1566.71 2531.7 1569.54 2532.08 1572.36 2532.67 1574.69 2533.46 1576.51 2534.26 1578.33 2535.25 1579.67 2536.45 1580.53 2537.65 1581.39 2539.08 1581.82 2540.75 1581.82 2542.31 1581.82 2543.68 1581.42 2544.85 1580.61 2546.02 1579.8 2546.99 1578.55 2547.76 1576.84 2548.53 1575.13 2549.11 1572.97 2549.5 1570.36 2549.89 1567.74 2550.08 1564.65 2550.08 1561.08 2550.08 1557.07 2549.87 1553.62 2549.44 1550.73 2549.01 1547.84 2548.4 1545.46 2547.62 1543.6 2546.84 1541.74 2545.86 1540.36 2544.67 1539.48 2543.49 1538.59 2542.13 1538.15 2540.59 1538.15ZM2540.75 1534.36C2543.85 1534.36 2546.5 1534.94 2548.7 1536.1 2550.9 1537.26 2552.69 1538.91 2554.09 1541.06 2555.48 1543.21 2556.5 1545.83 2557.15 1548.93 2557.8 1552.03 2558.13 1555.53 2558.13 1559.44 2558.13 1568.11 2556.59 1574.67 2553.52 1579.11 2550.45 1583.55 2545.99 1585.77 2540.16 1585.77 2534.38 1585.77 2530.08 1583.67 2527.27 1579.48 2524.46 1575.28 2523.05 1568.93 2523.05 1560.41 2523.05 1555.96 2523.49 1552.11 2524.36 1548.85 2525.23 1545.6 2526.46 1542.89 2528.03 1540.75 2529.61 1538.6 2531.48 1537 2533.64 1535.94 2535.8 1534.89 2538.17 1534.36 2540.75 1534.36Z" fill-rule="evenodd"/><text fill="#000000" fill-opacity="0" font-family="Arial,Arial_MSFontService,sans-serif" font-size="51.4062" x="2523.05" y="1579.34">0</text><path d="M2682.2 1333.62C2680.41 1333.62 2679.04 1333.65 2678.07 1333.72L2664.8 1394.09C2666.45 1394.24 2667.77 1394.31 2668.78 1394.31 2673.4 1394.31 2677.38 1393.4 2680.73 1391.57 2684.08 1389.74 2687.05 1386.96 2689.64 1383.22 2692.24 1379.48 2694.28 1374.91 2695.77 1369.52 2697.25 1364.13 2698 1358.72 2698 1353.27 2698 1349.59 2697.58 1346.49 2696.76 1343.98 2695.94 1341.48 2694.8 1339.45 2693.35 1337.91 2691.9 1336.37 2690.22 1335.27 2688.3 1334.61 2686.39 1333.95 2684.35 1333.62 2682.2 1333.62ZM2657.34 1327.33 2679.09 1327.33C2685 1327.33 2689.72 1327.65 2693.27 1328.3 2696.49 1328.87 2699.44 1329.86 2702.1 1331.25 2704.77 1332.65 2706.88 1334.19 2708.42 1335.87 2710.39 1337.95 2711.93 1340.55 2713.06 1343.69 2714.19 1346.82 2714.75 1350.5 2714.75 1354.72 2714.75 1359.49 2714.22 1364.05 2713.14 1368.42 2712.07 1372.79 2710.48 1376.83 2708.39 1380.53 2706.29 1384.24 2703.79 1387.42 2700.87 1390.09 2697.95 1392.76 2695.02 1394.84 2692.09 1396.32 2689.15 1397.81 2685.84 1398.9 2682.15 1399.6 2678.46 1400.3 2674.09 1400.65 2669.05 1400.65L2642.57 1400.65 2643.32 1397.1C2645.36 1396.53 2646.86 1395.53 2647.83 1394.09 2648.8 1392.66 2649.71 1390.01 2650.57 1386.14L2660.34 1341.83C2660.81 1339.72 2661.04 1337.63 2661.04 1335.55 2661.04 1334.05 2660.69 1332.94 2660 1332.25 2659.3 1331.55 2658.16 1331.09 2656.58 1330.88Z" fill-rule="evenodd"/><text fill="#000000" fill-opacity="0" font-family="Arial,Arial_MSFontService,sans-serif" font-size="73.3154" x="2642.57" y="1391.48">ğ‘«</text><path d="M2745.17 1376.31C2743.35 1376.31 2741.82 1376.78 2740.6 1377.73 2739.37 1378.68 2738.4 1380.08 2737.69 1381.91 2736.97 1383.75 2736.46 1385.99 2736.16 1388.63 2735.87 1391.28 2735.72 1394.28 2735.72 1397.64 2735.72 1401.52 2735.9 1404.87 2736.28 1407.69 2736.66 1410.52 2737.25 1412.84 2738.04 1414.67 2738.83 1416.49 2739.83 1417.83 2741.03 1418.69 2742.23 1419.55 2743.66 1419.98 2745.32 1419.98 2746.89 1419.98 2748.25 1419.58 2749.43 1418.77 2750.6 1417.96 2751.57 1416.71 2752.34 1415 2753.1 1413.29 2753.68 1411.13 2754.07 1408.52 2754.47 1405.9 2754.66 1402.81 2754.66 1399.24 2754.66 1395.23 2754.45 1391.78 2754.02 1388.89 2753.59 1386 2752.98 1383.62 2752.2 1381.76 2751.42 1379.9 2750.44 1378.52 2749.25 1377.64 2748.07 1376.75 2746.71 1376.31 2745.17 1376.31ZM2745.32 1372.52C2748.42 1372.52 2751.07 1373.1 2753.27 1374.26 2755.47 1375.42 2757.27 1377.07 2758.66 1379.22 2760.06 1381.37 2761.08 1383.99 2761.73 1387.09 2762.38 1390.19 2762.71 1393.69 2762.71 1397.6 2762.71 1406.27 2761.17 1412.82 2758.1 1417.27 2755.03 1421.71 2750.57 1423.93 2744.74 1423.93 2738.96 1423.93 2734.66 1421.83 2731.85 1417.64 2729.04 1413.44 2727.63 1407.09 2727.63 1398.57 2727.63 1394.12 2728.07 1390.27 2728.94 1387.01 2729.81 1383.76 2731.03 1381.05 2732.61 1378.91 2734.19 1376.76 2736.05 1375.16 2738.22 1374.1 2740.38 1373.05 2742.75 1372.52 2745.32 1372.52Z" fill-rule="evenodd"/><text fill="#000000" fill-opacity="0" font-family="Arial,Arial_MSFontService,sans-serif" font-size="51.4062" x="2727.63" y="1417.5">0</text><path d="M2245.11 1425.04C2243.32 1425.04 2241.94 1425.08 2240.97 1425.15L2227.7 1485.52C2229.35 1485.66 2230.68 1485.73 2231.68 1485.73 2236.3 1485.73 2240.28 1484.82 2243.63 1483 2246.98 1481.17 2249.95 1478.39 2252.55 1474.64 2255.14 1470.9 2257.18 1466.34 2258.67 1460.95 2260.16 1455.56 2260.9 1450.14 2260.9 1444.7 2260.9 1441.01 2260.49 1437.91 2259.66 1435.41 2258.84 1432.9 2257.7 1430.88 2256.25 1429.34 2254.8 1427.8 2253.12 1426.7 2251.2 1426.04 2249.29 1425.37 2247.26 1425.04 2245.11 1425.04ZM2220.24 1418.76 2241.99 1418.76C2247.9 1418.76 2252.63 1419.08 2256.17 1419.72 2259.39 1420.3 2262.34 1421.28 2265.01 1422.68 2267.67 1424.07 2269.78 1425.61 2271.32 1427.3 2273.29 1429.37 2274.84 1431.98 2275.96 1435.11 2277.09 1438.25 2277.66 1441.92 2277.66 1446.15 2277.66 1450.91 2277.12 1455.48 2276.04 1459.85 2274.97 1464.21 2273.39 1468.25 2271.29 1471.96 2269.2 1475.66 2266.69 1478.85 2263.77 1481.52 2260.85 1484.19 2257.93 1486.26 2254.99 1487.75 2252.05 1489.24 2248.74 1490.33 2245.05 1491.03 2241.36 1491.72 2237 1492.07 2231.95 1492.07L2205.47 1492.07 2206.22 1488.53C2208.26 1487.96 2209.77 1486.95 2210.73 1485.52 2211.7 1484.09 2212.61 1481.44 2213.47 1477.57L2223.25 1433.26C2223.71 1431.15 2223.94 1429.05 2223.94 1426.98 2223.94 1425.47 2223.6 1424.37 2222.9 1423.67 2222.2 1422.97 2221.06 1422.52 2219.49 1422.3Z" fill-rule="evenodd"/><text fill="#000000" fill-opacity="0" font-family="Arial,Arial_MSFontService,sans-serif" font-size="73.3154" x="2205.47" y="1482.91">ğ‘«</text><path d="M2308.73 1464.22 2311.11 1464.22C2311.06 1465.65 2311.02 1466.93 2311 1468.07 2310.97 1469.2 2310.95 1470.3 2310.94 1471.37 2310.92 1472.43 2310.92 1473.49 2310.92 1474.53L2310.92 1504.22C2310.92 1505.03 2310.94 1505.72 2311 1506.31 2311.05 1506.89 2311.13 1507.39 2311.25 1507.79 2311.37 1508.2 2311.52 1508.54 2311.72 1508.83 2311.91 1509.11 2312.14 1509.36 2312.4 1509.57 2312.71 1509.88 2313.13 1510.12 2313.65 1510.29 2314.17 1510.46 2314.84 1510.61 2315.64 1510.72 2316.45 1510.84 2317.42 1510.93 2318.55 1511 2319.69 1511.06 2321.05 1511.11 2322.64 1511.13L2322.64 1514.53 2291.66 1514.53 2291.66 1511.13C2293.2 1511.08 2294.5 1511.02 2295.57 1510.96 2296.63 1510.89 2297.55 1510.8 2298.3 1510.68 2299.06 1510.57 2299.66 1510.44 2300.12 1510.29 2300.57 1510.15 2300.97 1509.97 2301.31 1509.77 2301.67 1509.53 2301.99 1509.28 2302.25 1509 2302.51 1508.73 2302.71 1508.39 2302.87 1507.97 2303.03 1507.55 2303.15 1507.04 2303.24 1506.45 2303.33 1505.85 2303.38 1505.1 2303.38 1504.22L2303.38 1476.21C2303.38 1475.2 2303.18 1474.48 2302.79 1474.06 2302.4 1473.65 2301.84 1473.44 2301.11 1473.44 2300.31 1473.44 2299.11 1473.85 2297.52 1474.69 2295.93 1475.52 2293.87 1476.76 2291.35 1478.4 2291.01 1477.8 2290.7 1477.2 2290.41 1476.6 2290.12 1476 2289.82 1475.39 2289.51 1474.77 2292.74 1472.99 2295.94 1471.23 2299.1 1469.47 2302.27 1467.71 2305.48 1465.96 2308.73 1464.22Z" fill-rule="evenodd"/><text fill="#000000" fill-opacity="0" font-family="Arial,Arial_MSFontService,sans-serif" font-size="50.3125" x="2289.51" y="1508.24">1</text><path d="M2540.45 1118.87C2538.66 1118.87 2537.28 1118.9 2536.31 1118.98L2523.05 1179.35C2524.69 1179.49 2526.02 1179.56 2527.02 1179.56 2531.64 1179.56 2535.62 1178.65 2538.97 1176.82 2542.32 1175 2545.29 1172.21 2547.89 1168.47 2550.48 1164.73 2552.52 1160.16 2554.01 1154.77 2555.5 1149.39 2556.24 1143.97 2556.24 1138.53 2556.24 1134.84 2555.83 1131.74 2555 1129.23 2554.18 1126.73 2553.04 1124.71 2551.59 1123.17 2550.14 1121.63 2548.46 1120.52 2546.54 1119.86 2544.63 1119.2 2542.6 1118.87 2540.45 1118.87ZM2515.58 1112.58 2537.33 1112.58C2543.24 1112.58 2547.97 1112.91 2551.51 1113.55 2554.74 1114.12 2557.68 1115.11 2560.35 1116.51 2563.02 1117.9 2565.12 1119.44 2566.66 1121.12 2568.63 1123.2 2570.18 1125.81 2571.31 1128.94 2572.43 1132.07 2573 1135.75 2573 1139.98 2573 1144.74 2572.46 1149.3 2571.39 1153.67 2570.31 1158.04 2568.73 1162.08 2566.63 1165.79 2564.54 1169.49 2562.03 1172.68 2559.11 1175.35 2556.19 1178.01 2553.27 1180.09 2550.33 1181.58 2547.4 1183.06 2544.08 1184.15 2540.39 1184.85 2536.71 1185.55 2532.34 1185.9 2527.29 1185.9L2500.81 1185.9 2501.56 1182.35C2503.6 1181.78 2505.11 1180.78 2506.07 1179.35 2507.04 1177.91 2507.95 1175.27 2508.81 1171.4L2518.59 1127.09C2519.05 1124.97 2519.29 1122.88 2519.29 1120.8 2519.29 1119.3 2518.94 1118.2 2518.24 1117.5 2517.54 1116.8 2516.4 1116.34 2514.83 1116.13Z" fill-rule="evenodd"/><text fill="#000000" fill-opacity="0" font-family="Arial,Arial_MSFontService,sans-serif" font-size="73.3154" x="2500.81" y="1176.74">ğ‘«</text><path d="M2603.57 1157.77C2606.28 1157.77 2608.59 1158.08 2610.5 1158.69 2612.42 1159.3 2613.97 1160.13 2615.17 1161.17 2616.37 1162.21 2617.23 1163.46 2617.77 1164.92 2618.3 1166.38 2618.57 1167.95 2618.57 1169.65 2618.57 1170.66 2618.5 1171.61 2618.35 1172.48 2618.21 1173.35 2617.96 1174.21 2617.61 1175.06 2617.26 1175.9 2616.8 1176.76 2616.22 1177.62 2615.65 1178.48 2614.94 1179.39 2614.08 1180.35 2613.43 1181.18 2612.58 1182.15 2611.54 1183.24 2610.5 1184.33 2609.36 1185.51 2608.12 1186.76 2606.88 1188.01 2605.59 1189.31 2604.23 1190.66 2602.88 1192.02 2601.56 1193.36 2600.29 1194.69 2599.01 1196.01 2597.84 1197.3 2596.77 1198.55 2595.7 1199.8 2594.83 1200.95 2594.15 1201.99L2608.61 1201.99C2609.83 1201.99 2610.81 1201.95 2611.54 1201.85 2612.27 1201.76 2612.87 1201.56 2613.35 1201.25 2613.84 1200.94 2614.25 1200.46 2614.58 1199.82 2614.92 1199.18 2615.31 1198.31 2615.76 1197.19L2619.39 1197.19C2619.26 1199.04 2619.13 1200.9 2619.02 1202.77 2618.9 1204.65 2618.78 1206.51 2618.65 1208.36L2585.56 1208.36 2585.56 1206.33C2586.19 1204.92 2586.91 1203.53 2587.75 1202.17 2588.58 1200.8 2589.52 1199.41 2590.56 1198.01 2591.6 1196.6 2592.79 1195.15 2594.12 1193.65 2595.44 1192.15 2596.91 1190.6 2598.53 1188.98 2600.98 1186.54 2602.97 1184.45 2604.51 1182.71 2606.04 1180.98 2607.25 1179.44 2608.14 1178.08 2609.02 1176.73 2609.63 1175.48 2609.96 1174.33 2610.28 1173.19 2610.44 1171.96 2610.44 1170.66 2610.44 1169.33 2610.25 1168.11 2609.88 1166.99 2609.5 1165.87 2608.96 1164.92 2608.26 1164.14 2607.55 1163.36 2606.66 1162.75 2605.58 1162.3 2604.5 1161.86 2603.26 1161.64 2601.85 1161.64 2599.43 1161.64 2597.4 1162.3 2595.76 1163.61 2594.12 1164.93 2592.84 1166.83 2591.93 1169.33L2586.81 1169.33 2586.81 1161.72C2590.14 1160.34 2593.21 1159.33 2596.01 1158.71 2598.81 1158.08 2601.33 1157.77 2603.57 1157.77Z" fill-rule="evenodd"/><text fill="#000000" fill-opacity="0" font-family="Arial,Arial_MSFontService,sans-serif" font-size="50.5859" x="2585.56" y="1202.03">2</text><path d="M2412.53 852.02 2022.5 772.5" stroke="#000000" stroke-width="4.58333" stroke-miterlimit="8" fill="none" fill-rule="evenodd"/><text font-family="Times New Roman,Times New Roman_MSFontService,sans-serif" font-weight="400" font-size="92" transform="matrix(1 0 0 1 1434.2 718)">Enclosed objects</text><path d="M2131.4 629.484 1974.5 580.5" stroke="#D1D1D1" stroke-width="4.58333" stroke-miterlimit="8" fill="none" fill-rule="evenodd"/><path d="M2471.4 345.484 2314.5 296.5" stroke="#D1D1D1" stroke-width="4.58333" stroke-miterlimit="8" fill="none" fill-rule="evenodd"/><path d="M0 0 112.578 94.3282" stroke="#D1D1D1" stroke-width="4.58333" stroke-miterlimit="8" fill="none" fill-rule="evenodd" transform="matrix(1 0 0 -1 2459.5 342.828)"/><path d="M19.0379 12.9619 318.203 263.63 315.259 267.144 16.0942 16.475ZM12.2479 28.2011 0 0 29.9096 7.12236ZM322.049 251.904 334.297 280.105 304.387 272.983Z" fill="#D1D1D1" transform="matrix(1 0 0 -1 2017.5 590.605)"/><path d="M0 0 112.578 94.3282" stroke="#D1D1D1" stroke-width="4.58333" stroke-miterlimit="8" fill="none" fill-rule="evenodd" transform="matrix(1 0 0 -1 2791.5 454.828)"/><path d="M2851.57 376.083 2564.69 286.517 2566.06 282.142 2852.94 371.708ZM2851.98 359.404 2874.13 380.725 2843.78 385.655ZM2565.65 298.821 2543.5 277.5 2573.85 272.57Z" fill="#D1D1D1"/><path d="M0 0 112.578 94.3282" stroke="#D1D1D1" stroke-width="4.58333" stroke-miterlimit="8" fill="none" fill-rule="evenodd" transform="matrix(1 0 0 -1 2797.5 1151.83)"/><path d="M2.29168 22.9158 2.29202 666.303-2.29132 666.303-2.29165 22.9158ZM-13.75 27.5 0 0 13.75 27.5ZM13.7503 661.719 0.000360892 689.219-13.7497 661.719Z" fill="#D1D1D1" transform="matrix(1 0 0 -1 2875.5 1078.72)"/><path d="M2102.71 366.018C2106.04 366.018 2109.08 366.215 2111.82 366.608 2114.56 367.002 2117.29 367.683 2120.01 368.649L2117.59 379.929 2113.24 379.929C2112.85 376.742 2111.8 374.325 2110.1 372.678 2108.4 371.031 2105.72 370.207 2102.07 370.207 2099.24 370.207 2096.95 370.932 2095.19 372.382 2093.44 373.833 2092.56 375.739 2092.56 378.103 2092.56 379.392 2092.79 380.529 2093.23 381.513 2093.68 382.498 2094.58 383.581 2095.95 384.763 2097.31 385.944 2099.42 387.395 2102.28 389.113 2104.54 390.474 2106.35 391.718 2107.71 392.846 2109.07 393.974 2110.14 395.093 2110.93 396.203 2111.72 397.313 2112.29 398.486 2112.65 399.721 2113.01 400.957 2113.19 402.452 2113.19 404.206 2113.19 407.393 2112.34 410.123 2110.64 412.397 2108.93 414.671 2106.62 416.363 2103.71 417.473 2100.79 418.583 2097.47 419.138 2093.74 419.138 2090.77 419.138 2087.85 418.914 2084.99 418.466 2082.12 418.019 2078.94 417.258 2075.43 416.184L2078.01 404.475 2082.2 404.475C2082.34 407.912 2083.31 410.508 2085.1 412.263 2086.89 414.017 2089.73 414.895 2093.64 414.895 2097.04 414.895 2099.7 414.134 2101.61 412.612 2103.53 411.09 2104.49 408.933 2104.49 406.14 2104.49 404.528 2104.22 403.141 2103.68 401.977 2103.14 400.813 2102.27 399.694 2101.05 398.62 2099.83 397.546 2097.9 396.203 2095.25 394.592 2092.45 392.909 2090.28 391.387 2088.72 390.026 2087.16 388.666 2085.99 387.189 2085.2 385.595 2084.42 384.002 2084.02 382.167 2084.02 380.09 2084.02 377.261 2084.78 374.781 2086.3 372.651 2087.83 370.52 2090 368.882 2092.83 367.736 2095.66 366.591 2098.95 366.018 2102.71 366.018Z" fill-rule="evenodd"/><text fill="#000000" fill-opacity="0" font-family="Arial,Arial_MSFontService,sans-serif" font-size="53.1201" x="2075.43" y="412.498">ğ‘ </text><path d="M2144.21 393.886C2142.39 393.886 2140.87 394.361 2139.64 395.312 2138.42 396.262 2137.45 397.656 2136.73 399.492 2136.02 401.327 2135.51 403.567 2135.21 406.21 2134.91 408.854 2134.76 411.855 2134.76 415.214 2134.76 419.094 2134.95 422.447 2135.33 425.273 2135.71 428.098 2136.29 430.423 2137.09 432.245 2137.88 434.068 2138.88 435.41 2140.07 436.269 2141.27 437.128 2142.7 437.558 2144.37 437.558 2145.93 437.558 2147.3 437.154 2148.47 436.347 2149.64 435.54 2150.61 434.283 2151.38 432.577 2152.15 430.872 2152.73 428.71 2153.12 426.093 2153.51 423.476 2153.71 420.383 2153.71 416.816 2153.71 412.805 2153.49 409.355 2153.06 406.464 2152.63 403.574 2152.03 401.197 2151.25 399.335 2150.46 397.473 2149.48 396.1 2148.3 395.214 2147.11 394.329 2145.75 393.886 2144.21 393.886ZM2144.37 390.097C2147.47 390.097 2150.12 390.676 2152.32 391.835 2154.52 392.994 2156.32 394.648 2157.71 396.796 2159.1 398.945 2160.13 401.568 2160.78 404.667 2161.43 407.766 2161.75 411.269 2161.75 415.175 2161.75 423.847 2160.22 430.403 2157.14 434.843 2154.07 439.283 2149.62 441.503 2143.78 441.503 2138 441.503 2133.71 439.407 2130.89 435.214 2128.08 431.021 2126.68 424.667 2126.68 416.152 2126.68 411.699 2127.11 407.844 2127.98 404.589 2128.86 401.334 2130.08 398.632 2131.66 396.484 2133.23 394.335 2135.1 392.734 2137.26 391.679 2139.42 390.624 2141.79 390.097 2144.37 390.097Z" fill-rule="evenodd"/><text fill="#000000" fill-opacity="0" font-family="Arial,Arial_MSFontService,sans-serif" font-size="51.4062" x="2126.68" y="435.077">0</text><path d="M2727.66 244.265C2730.99 244.265 2734.03 244.462 2736.77 244.856 2739.5 245.25 2742.24 245.93 2744.96 246.897L2742.54 258.176 2738.19 258.176C2737.8 254.989 2736.75 252.572 2735.05 250.925 2733.35 249.278 2730.67 248.455 2727.02 248.455 2724.19 248.455 2721.9 249.18 2720.14 250.63 2718.39 252.08 2717.51 253.987 2717.51 256.35 2717.51 257.639 2717.73 258.776 2718.18 259.761 2718.63 260.745 2719.53 261.829 2720.89 263.01 2722.25 264.192 2724.37 265.642 2727.23 267.361 2729.49 268.722 2731.3 269.966 2732.66 271.094 2734.02 272.222 2735.09 273.341 2735.88 274.451 2736.67 275.561 2737.24 276.733 2737.6 277.969 2737.96 279.204 2738.14 280.699 2738.14 282.454 2738.14 285.64 2737.28 288.371 2735.58 290.645 2733.88 292.918 2731.57 294.61 2728.66 295.72 2725.74 296.83 2722.42 297.385 2718.69 297.385 2715.72 297.385 2712.8 297.161 2709.94 296.714 2707.07 296.266 2703.89 295.505 2700.38 294.431L2702.95 282.722 2707.14 282.722C2707.29 286.16 2708.25 288.756 2710.04 290.51 2711.83 292.265 2714.68 293.142 2718.58 293.142 2721.99 293.142 2724.64 292.381 2726.56 290.859 2728.48 289.338 2729.43 287.18 2729.43 284.387 2729.43 282.776 2729.17 281.388 2728.63 280.225 2728.09 279.061 2727.21 277.942 2726 276.868 2724.78 275.793 2722.85 274.451 2720.2 272.839 2717.4 271.156 2715.23 269.635 2713.67 268.274 2712.11 266.913 2710.94 265.436 2710.15 263.843 2709.36 262.249 2708.97 260.414 2708.97 258.337 2708.97 255.509 2709.73 253.029 2711.25 250.898 2712.77 248.768 2714.95 247.13 2717.78 245.984 2720.61 244.838 2723.9 244.265 2727.66 244.265Z" fill-rule="evenodd"/><text fill="#000000" fill-opacity="0" font-family="Arial,Arial_MSFontService,sans-serif" font-size="53.1201" x="2700.38" y="290.745">ğ‘ </text><path d="M2769.82 268.618 2772.21 268.618C2772.15 270.05 2772.11 271.333 2772.09 272.466 2772.06 273.598 2772.04 274.699 2772.03 275.766 2772.02 276.834 2772.01 277.889 2772.01 278.931L2772.01 308.618C2772.01 309.425 2772.04 310.122 2772.09 310.708 2772.14 311.294 2772.22 311.789 2772.34 312.192 2772.46 312.596 2772.62 312.941 2772.81 313.227 2773.01 313.514 2773.23 313.761 2773.49 313.97 2773.81 314.282 2774.22 314.523 2774.74 314.692 2775.27 314.862 2775.93 315.005 2776.74 315.122 2777.54 315.239 2778.51 315.33 2779.65 315.395 2780.78 315.46 2782.14 315.506 2783.73 315.532L2783.73 318.931 2752.75 318.931 2752.75 315.532C2754.29 315.48 2755.59 315.421 2756.66 315.356 2757.73 315.291 2758.64 315.2 2759.39 315.083 2760.15 314.966 2760.75 314.835 2761.21 314.692 2761.67 314.549 2762.06 314.373 2762.4 314.165 2762.77 313.931 2763.08 313.677 2763.34 313.403 2763.6 313.13 2763.81 312.785 2763.96 312.368 2764.12 311.951 2764.24 311.444 2764.33 310.845 2764.43 310.246 2764.47 309.503 2764.47 308.618L2764.47 280.61C2764.47 279.595 2764.28 278.878 2763.89 278.462 2763.49 278.045 2762.93 277.837 2762.21 277.837 2761.4 277.837 2760.2 278.253 2758.61 279.087 2757.02 279.92 2754.97 281.157 2752.44 282.798 2752.1 282.199 2751.79 281.6 2751.5 281.001 2751.22 280.402 2750.92 279.79 2750.6 279.165 2753.83 277.394 2757.03 275.63 2760.19 273.872 2763.36 272.114 2766.57 270.363 2769.82 268.618Z" fill-rule="evenodd"/><text fill="#000000" fill-opacity="0" font-family="Arial,Arial_MSFontService,sans-serif" font-size="50.3125" x="2750.6" y="312.641">1</text><path d="M2939.56 712.324C2942.9 712.324 2945.93 712.521 2948.67 712.915 2951.41 713.308 2954.14 713.989 2956.86 714.956L2954.44 726.235 2950.09 726.235C2949.7 723.048 2948.65 720.631 2946.95 718.984 2945.25 717.337 2942.57 716.513 2938.92 716.513 2936.09 716.513 2933.8 717.238 2932.05 718.689 2930.29 720.139 2929.41 722.045 2929.41 724.409 2929.41 725.698 2929.64 726.835 2930.08 727.819 2930.53 728.804 2931.44 729.887 2932.8 731.069 2934.16 732.251 2936.27 733.701 2939.14 735.419 2941.39 736.78 2943.2 738.024 2944.56 739.152 2945.92 740.28 2946.99 741.399 2947.78 742.509 2948.57 743.619 2949.14 744.792 2949.5 746.027 2949.86 747.263 2950.04 748.758 2950.04 750.512 2950.04 753.699 2949.19 756.429 2947.49 758.703 2945.79 760.977 2943.48 762.669 2940.56 763.779 2937.64 764.889 2934.32 765.444 2930.6 765.444 2927.62 765.444 2924.7 765.22 2921.84 764.773 2918.98 764.325 2915.79 763.564 2912.28 762.49L2914.86 750.781 2919.05 750.781C2919.19 754.218 2920.16 756.814 2921.95 758.569 2923.74 760.323 2926.58 761.201 2930.49 761.201 2933.89 761.201 2936.55 760.44 2938.46 758.918 2940.38 757.396 2941.34 755.239 2941.34 752.446 2941.34 750.835 2941.07 749.447 2940.53 748.283 2939.99 747.12 2939.12 746.001 2937.9 744.926 2936.68 743.852 2934.75 742.509 2932.1 740.898 2929.31 739.215 2927.13 737.693 2925.57 736.333 2924.02 734.972 2922.84 733.495 2922.06 731.901 2921.27 730.308 2920.87 728.473 2920.87 726.396 2920.87 723.567 2921.63 721.088 2923.16 718.957 2924.68 716.827 2926.85 715.188 2929.68 714.043 2932.51 712.897 2935.81 712.324 2939.56 712.324Z" fill-rule="evenodd"/><text fill="#000000" fill-opacity="0" font-family="Arial,Arial_MSFontService,sans-serif" font-size="53.1201" x="2912.28" y="758.804">ğ‘ </text><path d="M2981.22 736.403C2983.93 736.403 2986.24 736.709 2988.16 737.321 2990.07 737.933 2991.63 738.76 2992.82 739.802 2994.02 740.843 2994.89 742.093 2995.42 743.552 2995.96 745.01 2996.22 746.586 2996.22 748.278 2996.22 749.294 2996.15 750.238 2996.01 751.11 2995.86 751.983 2995.62 752.842 2995.27 753.688 2994.91 754.535 2994.45 755.388 2993.88 756.247 2993.31 757.106 2992.59 758.018 2991.73 758.981 2991.08 759.815 2990.23 760.778 2989.19 761.872 2988.15 762.966 2987.01 764.138 2985.77 765.388 2984.54 766.638 2983.24 767.94 2981.89 769.294 2980.53 770.648 2979.22 771.989 2977.94 773.317 2976.67 774.645 2975.49 775.934 2974.43 777.184 2973.36 778.434 2972.49 779.58 2971.81 780.622L2986.26 780.622C2987.49 780.622 2988.46 780.576 2989.19 780.485 2989.92 780.394 2990.53 780.192 2991.01 779.88 2991.49 779.567 2991.9 779.092 2992.24 778.454 2992.58 777.816 2992.97 776.937 2993.41 775.817L2997.04 775.817C2996.91 777.666 2996.79 779.528 2996.67 781.403 2996.55 783.278 2996.43 785.14 2996.3 786.989L2963.22 786.989 2963.22 784.958C2963.84 783.552 2964.57 782.165 2965.4 780.798 2966.24 779.431 2967.17 778.044 2968.22 776.638 2969.26 775.231 2970.44 773.779 2971.77 772.282 2973.1 770.785 2974.57 769.229 2976.18 767.614 2978.63 765.166 2980.62 763.076 2982.16 761.345 2983.7 759.613 2984.91 758.07 2985.79 756.716 2986.68 755.362 2987.28 754.112 2987.61 752.966 2987.94 751.82 2988.1 750.596 2988.1 749.294 2988.1 747.966 2987.91 746.742 2987.53 745.622 2987.15 744.502 2986.61 743.552 2985.91 742.77 2985.21 741.989 2984.32 741.377 2983.23 740.934 2982.15 740.492 2980.91 740.27 2979.5 740.27 2977.08 740.27 2975.05 740.928 2973.41 742.243 2971.77 743.558 2970.49 745.466 2969.58 747.966L2964.47 747.966 2964.47 740.349C2967.8 738.968 2970.86 737.966 2973.66 737.341 2976.46 736.716 2978.98 736.403 2981.22 736.403Z" fill-rule="evenodd"/><text fill="#000000" fill-opacity="0" font-family="Arial,Arial_MSFontService,sans-serif" font-size="50.5859" x="2963.22" y="780.666">2</text><path d="M696.936 883.106C716.484 704.959 876.747 576.388 1054.89 595.936 1233.04 615.484 1361.61 775.747 1342.06 953.894 1328.5 1077.48 1245.52 1182.46 1128.4 1224.18" stroke="#0F9ED5" stroke-width="13.75" stroke-miterlimit="8" fill="none" fill-rule="evenodd"/><rect x="686.5" y="582.5" width="671" height="650" stroke="#042433" stroke-width="6.875" stroke-miterlimit="8" stroke-dasharray="27.5 20.625" fill="none"/><path d="M0 0 164.947 166.008" stroke="#000000" stroke-width="4.58333" stroke-miterlimit="8" fill="none" fill-rule="evenodd" transform="matrix(-1 0 0 1 1504.45 754.5)"/><path d="M0 0 1.41614 144.804" stroke="#D1D1D1" stroke-width="4.58333" stroke-miterlimit="8" fill="none" fill-rule="evenodd" transform="matrix(1 0 0 -1 1357.5 585.304)"/><path d="M709.417 478.208 1334.96 478.209 1334.96 482.792 709.417 482.792ZM714 494.25 686.5 480.5 714 466.75ZM1330.38 466.75 1357.88 480.5 1330.38 494.25Z" fill="#D1D1D1"/><path d="M0 0 1.41614 144.804" stroke="#D1D1D1" stroke-width="4.58333" stroke-miterlimit="8" fill="none" fill-rule="evenodd" transform="matrix(1 0 0 -1 686.5 584.304)"/><path d="M0 0 1.36706 144.804" stroke="#D1D1D1" stroke-width="4.58333" stroke-miterlimit="8" fill="none" fill-rule="evenodd" transform="matrix(-1.83697e-16 -1 -1 1.83697e-16 688.304 582.867)"/><path d="M582.208 1208.67 582.209 606.416 586.792 606.416 586.792 1208.67ZM598.25 1204.09 584.5 1231.59 570.75 1204.09ZM570.75 611 584.5 583.5 598.25 611Z" fill="#D1D1D1"/><path d="M0 0 1.36706 144.804" stroke="#D1D1D1" stroke-width="4.58333" stroke-miterlimit="8" fill="none" fill-rule="evenodd" transform="matrix(-1.83697e-16 -1 -1 1.83697e-16 688.304 1230.87)"/><path d="M1002.57 379.801C1005.9 379.801 1008.94 379.998 1011.68 380.392 1014.42 380.786 1017.15 381.466 1019.87 382.433L1017.45 393.712 1013.1 393.712C1012.71 390.525 1011.66 388.108 1009.96 386.461 1008.26 384.814 1005.58 383.991 1001.93 383.991 999.101 383.991 996.809 384.716 995.055 386.166 993.3 387.616 992.423 389.523 992.423 391.886 992.423 393.175 992.646 394.312 993.094 395.297 993.542 396.281 994.446 397.365 995.806 398.546 997.167 399.728 999.28 401.178 1002.14 402.897 1004.4 404.258 1006.21 405.502 1007.57 406.63 1008.93 407.758 1010 408.877 1010.79 409.987 1011.58 411.097 1012.15 412.269 1012.51 413.505 1012.87 414.74 1013.05 416.235 1013.05 417.99 1013.05 421.177 1012.2 423.907 1010.5 426.181 1008.8 428.454 1006.49 430.146 1003.57 431.256 1000.65 432.366 997.328 432.921 993.604 432.921 990.632 432.921 987.714 432.698 984.849 432.25 981.985 431.802 978.798 431.041 975.289 429.967L977.867 418.258 982.056 418.258C982.2 421.696 983.167 424.292 984.957 426.046 986.747 427.801 989.594 428.678 993.497 428.678 996.899 428.678 999.557 427.917 1001.47 426.395 1003.39 424.874 1004.35 422.716 1004.35 419.923 1004.35 418.312 1004.08 416.924 1003.54 415.761 1003 414.597 1002.13 413.478 1000.91 412.404 999.692 411.329 997.758 409.987 995.108 408.375 992.315 406.692 990.14 405.171 988.582 403.81 987.025 402.449 985.852 400.972 985.064 399.379 984.276 397.785 983.883 395.95 983.883 393.873 983.883 391.045 984.644 388.565 986.165 386.434 987.687 384.304 989.862 382.666 992.691 381.52 995.52 380.374 998.814 379.801 1002.57 379.801Z" fill-rule="evenodd"/><text fill="#000000" fill-opacity="0" font-family="Arial,Arial_MSFontService,sans-serif" font-size="53.1201" x="975.289" y="426.281">ğ‘ </text><path d="M1044.08 407.67C1042.25 407.67 1040.73 408.145 1039.51 409.095 1038.28 410.046 1037.31 411.439 1036.6 413.275 1035.88 415.111 1035.37 417.351 1035.07 419.994 1034.77 422.637 1034.62 425.638 1034.62 428.998 1034.62 432.878 1034.81 436.231 1035.19 439.056 1035.57 441.882 1036.15 444.206 1036.95 446.029 1037.74 447.852 1038.74 449.193 1039.94 450.052 1041.13 450.912 1042.57 451.342 1044.23 451.342 1045.79 451.342 1047.16 450.938 1048.33 450.131 1049.51 449.323 1050.48 448.067 1051.24 446.361 1052.01 444.655 1052.59 442.494 1052.98 439.877 1053.37 437.259 1053.57 434.167 1053.57 430.599 1053.57 426.589 1053.35 423.138 1052.92 420.248 1052.49 417.357 1051.89 414.981 1051.11 413.119 1050.33 411.257 1049.34 409.883 1048.16 408.998 1046.97 408.112 1045.61 407.67 1044.08 407.67ZM1044.23 403.881C1047.33 403.881 1049.98 404.46 1052.18 405.619 1054.38 406.778 1056.18 408.431 1057.57 410.58 1058.96 412.728 1059.99 415.352 1060.64 418.451 1061.29 421.55 1061.61 425.052 1061.61 428.959 1061.61 437.631 1060.08 444.187 1057.01 448.627 1053.93 453.067 1049.48 455.287 1043.65 455.287 1037.86 455.287 1033.57 453.19 1030.76 448.998 1027.94 444.805 1026.54 438.451 1026.54 429.935 1026.54 425.482 1026.97 421.628 1027.85 418.373 1028.72 415.118 1029.94 412.416 1031.52 410.267 1033.09 408.119 1034.96 406.517 1037.12 405.463 1039.28 404.408 1041.65 403.881 1044.23 403.881Z" fill-rule="evenodd"/><text fill="#000000" fill-opacity="0" font-family="Arial,Arial_MSFontService,sans-serif" font-size="51.4062" x="1026.54" y="448.861">0</text><path d="M484.404 930.989C484.404 927.659 484.601 924.625 484.995 921.885 485.389 919.146 486.069 916.416 487.036 913.694L498.315 916.111 498.315 920.462C495.128 920.856 492.711 921.903 491.064 923.604 489.417 925.305 488.594 927.982 488.594 931.634 488.594 934.463 489.319 936.754 490.769 938.509 492.219 940.263 494.126 941.141 496.489 941.141 497.778 941.141 498.915 940.917 499.9 940.469 500.884 940.022 501.968 939.118 503.149 937.757 504.331 936.396 505.781 934.284 507.5 931.419 508.861 929.163 510.105 927.355 511.233 925.994 512.361 924.634 513.48 923.559 514.59 922.772 515.7 921.984 516.872 921.411 518.108 921.053 519.343 920.695 520.838 920.516 522.593 920.516 525.779 920.516 528.51 921.366 530.784 923.067 533.057 924.768 534.749 927.077 535.859 929.996 536.969 932.914 537.524 936.235 537.524 939.959 537.524 942.931 537.3 945.849 536.853 948.714 536.405 951.578 535.644 954.765 534.57 958.274L522.861 955.696 522.861 951.507C526.299 951.364 528.895 950.397 530.649 948.607 532.404 946.816 533.281 943.969 533.281 940.066 533.281 936.665 532.52 934.006 530.998 932.09 529.477 930.175 527.319 929.217 524.526 929.217 522.915 929.217 521.527 929.485 520.364 930.023 519.2 930.56 518.081 931.437 517.007 932.654 515.932 933.872 514.59 935.805 512.978 938.455 511.295 941.248 509.774 943.423 508.413 944.981 507.052 946.539 505.575 947.711 503.982 948.499 502.388 949.287 500.553 949.681 498.476 949.681 495.648 949.681 493.168 948.92 491.037 947.398 488.907 945.876 487.269 943.701 486.123 940.872 484.977 938.043 484.404 934.749 484.404 930.989Z" fill-rule="evenodd"/><text fill="#000000" fill-opacity="0" font-family="Arial,Arial_MSFontService,sans-serif" font-size="44.5801" x="484.404" y="952.702">ğ‘ </text><path d="M508.757 888.828 508.757 886.445C510.189 886.497 511.472 886.537 512.605 886.563 513.738 886.589 514.838 886.608 515.906 886.621 516.973 886.634 518.028 886.641 519.07 886.641L548.757 886.641C549.564 886.641 550.261 886.615 550.847 886.563 551.433 886.511 551.928 886.426 552.331 886.309 552.735 886.192 553.08 886.035 553.366 885.84 553.653 885.645 553.9 885.417 554.109 885.156 554.421 884.844 554.662 884.427 554.831 883.906 555.001 883.386 555.144 882.721 555.261 881.914 555.378 881.107 555.469 880.137 555.534 879.004 555.6 877.871 555.645 876.511 555.671 874.922L559.07 874.922 559.07 905.899 555.671 905.899C555.619 904.362 555.56 903.06 555.495 901.992 555.43 900.925 555.339 900.013 555.222 899.258 555.105 898.503 554.975 897.897 554.831 897.442 554.688 896.986 554.512 896.589 554.304 896.25 554.07 895.886 553.816 895.573 553.542 895.313 553.269 895.052 552.924 894.844 552.507 894.688 552.09 894.531 551.583 894.408 550.984 894.317 550.385 894.225 549.643 894.18 548.757 894.18L520.749 894.18C519.734 894.18 519.018 894.375 518.601 894.766 518.184 895.156 517.976 895.716 517.976 896.445 517.976 897.253 518.393 898.451 519.226 900.039 520.059 901.628 521.296 903.685 522.937 906.211 522.338 906.55 521.739 906.862 521.14 907.149 520.541 907.435 519.929 907.734 519.304 908.047 517.533 904.818 515.769 901.621 514.011 898.457 512.253 895.293 510.502 892.083 508.757 888.828Z" fill-rule="evenodd"/><text fill="#000000" fill-opacity="0" font-family="Arial,Arial_MSFontService,sans-serif" font-size="33.125" x="508.757" y="903.906">1</text><path d="M10.3125-1.24984e-05 10.3128 246.211-10.3122 246.211-10.3125 1.24984e-05ZM30.9378 235.899 0.000360892 297.774-30.9372 235.899Z" transform="matrix(1 0 0 -1 686.5 1232.27)"/><path d="M10.3125-1.24984e-05 10.3128 246.211-10.3122 246.211-10.3125 1.24984e-05ZM30.9378 235.899 0.000360892 297.774-30.9372 235.899Z" transform="matrix(6.12323e-17 1 1 -6.12323e-17 680.5 1232.5)"/><path d="M660 1233C660 1218.64 671.641 1207 686 1207 700.359 1207 712 1218.64 712 1233 712 1247.36 700.359 1259 686 1259 671.641 1259 660 1247.36 660 1233Z" stroke="#000000" stroke-width="13.75" stroke-miterlimit="8" fill="#FFC000" fill-rule="evenodd"/><path d="M631.11 1285.66C629.105 1285.66 627.368 1285.7 625.9 1285.77L619.294 1316.01 622.086 1316.01C626.992 1316.01 630.77 1315.24 633.419 1313.7 636.069 1312.16 638.092 1309.86 639.489 1306.8 640.885 1303.74 641.584 1300.29 641.584 1296.46 641.584 1292.84 640.733 1290.14 639.032 1288.35 637.331 1286.56 634.691 1285.66 631.11 1285.66ZM605.114 1279.38 631.916 1279.38C635.675 1279.38 638.719 1279.49 641.046 1279.73 643.374 1279.96 645.639 1280.5 647.841 1281.34 650.043 1282.18 651.896 1283.29 653.4 1284.67 654.904 1286.05 656.05 1287.71 656.837 1289.66 657.625 1291.61 658.019 1293.84 658.019 1296.35 658.019 1300.36 657.276 1303.95 655.79 1307.12 654.304 1310.29 652.2 1313.02 649.479 1315.31 646.758 1317.6 643.293 1319.33 639.086 1320.49 634.879 1321.66 630.179 1322.24 624.987 1322.24L623.429 1322.24C621.245 1322.24 619.419 1322.15 617.951 1321.97L614.352 1338.19C614.101 1339.34 613.922 1340.33 613.815 1341.17 613.708 1342.01 613.654 1343.11 613.654 1344.47 613.654 1346.12 614.075 1347.29 614.916 1347.97 615.758 1348.65 617.073 1349.04 618.864 1349.15L618.112 1352.69 590.343 1352.69 591.095 1349.15C593.136 1348.57 594.64 1347.57 595.607 1346.14 596.574 1344.71 597.487 1342.06 598.346 1338.19L608.122 1293.88C608.587 1291.77 608.82 1289.67 608.82 1287.59 608.82 1286.09 608.471 1284.99 607.773 1284.29 607.074 1283.59 605.937 1283.14 604.362 1282.92Z" fill-rule="evenodd"/><text fill="#000000" fill-opacity="0" font-family="Arial,Arial_MSFontService,sans-serif" font-size="73.3154" x="590.343" y="1343.53">ğ‘·</text><path d="M686.071 1328.35C684.248 1328.35 682.724 1328.83 681.501 1329.78 680.277 1330.73 679.307 1332.12 678.59 1333.96 677.874 1335.8 677.366 1338.04 677.067 1340.68 676.767 1343.32 676.618 1346.32 676.618 1349.68 676.618 1353.56 676.807 1356.92 677.184 1359.74 677.562 1362.57 678.148 1364.89 678.942 1366.71 679.736 1368.54 680.732 1369.88 681.93 1370.74 683.128 1371.6 684.56 1372.03 686.227 1372.03 687.79 1372.03 689.157 1371.62 690.329 1370.82 691.501 1370.01 692.471 1368.75 693.239 1367.05 694.007 1365.34 694.586 1363.18 694.977 1360.56 695.368 1357.94 695.563 1354.85 695.563 1351.28 695.563 1347.27 695.348 1343.82 694.919 1340.93 694.489 1338.04 693.883 1335.67 693.102 1333.8 692.321 1331.94 691.338 1330.57 690.153 1329.68 688.968 1328.8 687.607 1328.35 686.071 1328.35ZM686.227 1324.57C689.326 1324.57 691.976 1325.14 694.176 1326.3 696.377 1327.46 698.174 1329.12 699.567 1331.26 700.96 1333.41 701.982 1336.04 702.633 1339.14 703.284 1342.23 703.61 1345.74 703.61 1349.64 703.61 1358.32 702.073 1364.87 699.001 1369.31 695.928 1373.75 691.474 1375.97 685.641 1375.97 679.86 1375.97 675.563 1373.88 672.751 1369.68 669.938 1365.49 668.532 1359.14 668.532 1350.62 668.532 1346.17 668.968 1342.31 669.84 1339.06 670.713 1335.8 671.937 1333.1 673.512 1330.95 675.088 1328.8 676.956 1327.2 679.118 1326.15 681.279 1325.09 683.649 1324.57 686.227 1324.57Z" fill-rule="evenodd"/><text fill="#000000" fill-opacity="0" font-family="Arial,Arial_MSFontService,sans-serif" font-size="51.4062" x="668.532" y="1369.55">0</text><path d="M777.166 941.331C775.376 941.331 773.997 941.367 773.03 941.438L759.764 1001.81C761.411 1001.95 762.736 1002.02 763.738 1002.02 768.358 1002.02 772.341 1001.11 775.689 999.285 779.037 997.459 782.009 994.675 784.605 990.933 787.201 987.191 789.242 982.626 790.728 977.237 792.214 971.848 792.957 966.432 792.957 960.989 792.957 957.301 792.545 954.204 791.722 951.697 790.898 949.191 789.761 947.168 788.311 945.628 786.861 944.088 785.178 942.987 783.262 942.325 781.347 941.662 779.315 941.331 777.166 941.331ZM752.298 935.047 774.051 935.047C779.959 935.047 784.686 935.369 788.231 936.014 791.453 936.587 794.398 937.571 797.066 938.968 799.734 940.364 801.837 941.904 803.377 943.587 805.346 945.664 806.895 948.269 808.023 951.402 809.151 954.535 809.715 958.214 809.715 962.439 809.715 967.202 809.178 971.767 808.104 976.136 807.029 980.504 805.445 984.542 803.35 988.248 801.255 991.954 798.749 995.14 795.831 997.808 792.912 1000.48 789.985 1002.55 787.049 1004.04 784.113 1005.52 780.801 1006.62 777.112 1007.31 773.424 1008.01 769.056 1008.36 764.007 1008.36L737.527 1008.36 738.279 1004.82C740.32 1004.24 741.824 1003.24 742.791 1001.81 743.758 1000.38 744.671 997.728 745.53 993.86L755.306 949.549C755.771 947.436 756.004 945.341 756.004 943.265 756.004 941.761 755.655 940.66 754.957 939.961 754.258 939.263 753.122 938.807 751.546 938.592Z" fill-rule="evenodd"/><text fill="#000000" fill-opacity="0" font-family="Arial,Arial_MSFontService,sans-serif" font-size="73.3154" x="737.527" y="999.198">ğ‘«</text><path d="M840.789 980.508 843.172 980.508C843.12 981.94 843.081 983.223 843.055 984.356 843.029 985.489 843.009 986.589 842.996 987.657 842.983 988.724 842.977 989.779 842.977 990.821L842.977 1020.51C842.977 1021.32 843.003 1022.01 843.055 1022.6 843.107 1023.18 843.192 1023.68 843.309 1024.08 843.426 1024.49 843.582 1024.83 843.778 1025.12 843.973 1025.4 844.201 1025.65 844.461 1025.86 844.774 1026.17 845.19 1026.41 845.711 1026.58 846.232 1026.75 846.896 1026.89 847.703 1027.01 848.511 1027.13 849.481 1027.22 850.614 1027.29 851.746 1027.35 853.107 1027.4 854.696 1027.42L854.696 1030.82 823.719 1030.82 823.719 1027.42C825.255 1027.37 826.558 1027.31 827.625 1027.25 828.693 1027.18 829.604 1027.09 830.36 1026.97 831.115 1026.86 831.72 1026.73 832.176 1026.58 832.632 1026.44 833.029 1026.26 833.367 1026.06 833.732 1025.82 834.045 1025.57 834.305 1025.29 834.565 1025.02 834.774 1024.67 834.93 1024.26 835.086 1023.84 835.21 1023.33 835.301 1022.73 835.392 1022.14 835.438 1021.39 835.438 1020.51L835.438 992.5C835.438 991.485 835.242 990.769 834.852 990.352 834.461 989.935 833.901 989.727 833.172 989.727 832.365 989.727 831.167 990.144 829.578 990.977 827.99 991.81 825.933 993.047 823.407 994.688 823.068 994.089 822.755 993.49 822.469 992.891 822.183 992.292 821.883 991.68 821.571 991.055 824.8 989.284 827.996 987.52 831.16 985.762 834.325 984.004 837.534 982.253 840.789 980.508Z" fill-rule="evenodd"/><text fill="#000000" fill-opacity="0" font-family="Arial,Arial_MSFontService,sans-serif" font-size="50.3125" x="821.571" y="1024.53">1</text><path d="M924.774 1294.87C922.984 1294.87 921.605 1294.9 920.639 1294.97L907.372 1355.34C909.019 1355.49 910.344 1355.56 911.347 1355.56 915.966 1355.56 919.949 1354.65 923.297 1352.82 926.645 1350.99 929.617 1348.21 932.213 1344.47 934.809 1340.73 936.85 1336.16 938.336 1330.77 939.822 1325.38 940.565 1319.97 940.565 1314.52 940.565 1310.84 940.154 1307.74 939.33 1305.23 938.506 1302.73 937.37 1300.7 935.919 1299.16 934.469 1297.62 932.786 1296.52 930.871 1295.86 928.955 1295.2 926.923 1294.87 924.774 1294.87ZM899.906 1288.58 921.659 1288.58C927.567 1288.58 932.294 1288.9 935.839 1289.55 939.061 1290.12 942.007 1291.11 944.674 1292.5 947.342 1293.9 949.446 1295.44 950.985 1297.12 952.955 1299.2 954.503 1301.8 955.631 1304.94 956.759 1308.07 957.323 1311.75 957.323 1315.97 957.323 1320.74 956.786 1325.3 955.712 1329.67 954.638 1334.04 953.053 1338.08 950.958 1341.78 948.864 1345.49 946.357 1348.68 943.439 1351.34 940.521 1354.01 937.593 1356.09 934.657 1357.57 931.721 1359.06 928.409 1360.15 924.721 1360.85 921.032 1361.55 916.664 1361.9 911.615 1361.9L885.136 1361.9 885.888 1358.35C887.929 1357.78 889.433 1356.78 890.399 1355.34 891.366 1353.91 892.279 1351.26 893.139 1347.4L902.914 1303.08C903.38 1300.97 903.612 1298.88 903.612 1296.8 903.612 1295.3 903.263 1294.19 902.565 1293.5 901.867 1292.8 900.73 1292.34 899.154 1292.13Z" fill-rule="evenodd"/><text fill="#000000" fill-opacity="0" font-family="Arial,Arial_MSFontService,sans-serif" font-size="73.3154" x="885.136" y="1352.73">ğ‘«</text><path d="M987.738 1337.56C985.915 1337.56 984.392 1338.03 983.168 1338.98 981.944 1339.94 980.974 1341.33 980.258 1343.16 979.542 1345 979.034 1347.24 978.734 1349.88 978.435 1352.53 978.285 1355.53 978.285 1358.89 978.285 1362.77 978.474 1366.12 978.852 1368.95 979.229 1371.77 979.815 1374.1 980.609 1375.92 981.404 1377.74 982.4 1379.08 983.598 1379.94 984.796 1380.8 986.228 1381.23 987.894 1381.23 989.457 1381.23 990.824 1380.83 991.996 1380.02 993.168 1379.21 994.138 1377.96 994.906 1376.25 995.674 1374.54 996.254 1372.38 996.644 1369.77 997.035 1367.15 997.23 1364.06 997.23 1360.49 997.23 1356.48 997.016 1353.03 996.586 1350.14 996.156 1347.25 995.551 1344.87 994.769 1343.01 993.988 1341.15 993.005 1339.77 991.82 1338.89 990.635 1338 989.275 1337.56 987.738 1337.56ZM987.894 1333.77C990.993 1333.77 993.643 1334.35 995.844 1335.51 998.044 1336.67 999.841 1338.32 1001.23 1340.47 1002.63 1342.62 1003.65 1345.24 1004.3 1348.34 1004.95 1351.44 1005.28 1354.94 1005.28 1358.85 1005.28 1367.52 1003.74 1374.08 1000.67 1378.52 997.595 1382.96 993.142 1385.18 987.309 1385.18 981.527 1385.18 977.23 1383.08 974.418 1378.89 971.605 1374.69 970.199 1368.34 970.199 1359.82 970.199 1355.37 970.635 1351.52 971.508 1348.26 972.38 1345.01 973.604 1342.31 975.18 1340.16 976.755 1338.01 978.624 1336.41 980.785 1335.35 982.947 1334.3 985.316 1333.77 987.894 1333.77Z" fill-rule="evenodd"/><text fill="#000000" fill-opacity="0" font-family="Arial,Arial_MSFontService,sans-serif" font-size="51.4062" x="970.199" y="1378.75">0</text><path d="M1457.37 1445.79C1466.11 1448.09 1472.83 1453.07 1477.52 1460.72 1482.2 1468.38 1484.55 1477.61 1484.55 1488.42 1484.55 1499.26 1482.21 1508.49 1477.54 1516.11 1472.87 1523.74 1466.14 1528.7 1457.37 1531.01L1456.29 1527.55C1463.21 1525.24 1468.35 1520.69 1471.72 1513.89 1475.09 1507.09 1476.77 1498.45 1476.77 1487.97 1476.77 1477.85 1475.1 1469.44 1471.74 1462.75 1468.39 1456.05 1463.19 1451.55 1456.15 1449.25ZM571.074 1445.79 572.287 1449.25C565.279 1451.55 560.091 1456.05 556.721 1462.75 553.352 1469.44 551.668 1477.85 551.668 1487.97 551.668 1498.45 553.352 1507.09 556.721 1513.89 560.091 1520.69 565.234 1525.24 572.152 1527.55L571.074 1531.01C562.299 1528.7 555.576 1523.74 550.904 1516.11 546.232 1508.49 543.896 1499.26 543.896 1488.42 543.896 1477.61 546.24 1468.38 550.926 1460.72 555.613 1453.07 562.329 1448.09 571.074 1445.79Z" fill-rule="evenodd"/><path d="M609.565 1458.6C608.067 1458.6 606.914 1458.63 606.106 1458.69L595.01 1509.18C596.388 1509.3 597.496 1509.36 598.334 1509.36 602.198 1509.36 605.529 1508.6 608.329 1507.07 611.13 1505.55 613.615 1503.22 615.786 1500.09 617.958 1496.96 619.665 1493.14 620.908 1488.63 622.15 1484.13 622.772 1479.6 622.772 1475.04 622.772 1471.96 622.427 1469.37 621.739 1467.27 621.05 1465.18 620.099 1463.48 618.886 1462.2 617.673 1460.91 616.266 1459.99 614.663 1459.43 613.061 1458.88 611.362 1458.6 609.565 1458.6ZM588.766 1453.35 606.959 1453.35C611.901 1453.35 615.854 1453.62 618.819 1454.16 621.514 1454.63 623.977 1455.46 626.208 1456.63 628.439 1457.79 630.199 1459.08 631.487 1460.49 633.134 1462.23 634.429 1464.4 635.372 1467.03 636.316 1469.65 636.787 1472.72 636.787 1476.26 636.787 1480.24 636.338 1484.06 635.44 1487.71 634.541 1491.37 633.216 1494.74 631.464 1497.84 629.712 1500.94 627.616 1503.61 625.175 1505.84 622.734 1508.07 620.286 1509.81 617.83 1511.05 615.375 1512.29 612.604 1513.21 609.52 1513.79 606.435 1514.37 602.782 1514.67 598.559 1514.67L576.412 1514.67 577.041 1511.7C578.748 1511.22 580.006 1510.38 580.815 1509.18 581.623 1507.99 582.387 1505.77 583.106 1502.54L591.282 1465.48C591.671 1463.71 591.866 1461.96 591.866 1460.22 591.866 1458.96 591.574 1458.04 590.99 1457.46 590.406 1456.87 589.455 1456.49 588.137 1456.31Z" fill-rule="evenodd"/><text fill="#000000" fill-opacity="0" font-family="Arial,Arial_MSFontService,sans-serif" font-size="61.3184" x="576.412" y="1507">ğ‘«</text><path d="M662.133 1491C664.401 1491 666.336 1491.26 667.94 1491.77 669.543 1492.28 670.846 1492.97 671.849 1493.85 672.852 1494.72 673.577 1495.76 674.024 1496.99 674.472 1498.21 674.695 1499.53 674.695 1500.94 674.695 1501.8 674.635 1502.59 674.515 1503.32 674.395 1504.05 674.188 1504.77 673.894 1505.48 673.599 1506.18 673.212 1506.9 672.732 1507.62 672.252 1508.34 671.653 1509.1 670.933 1509.91 670.388 1510.61 669.679 1511.41 668.806 1512.33 667.934 1513.25 666.98 1514.23 665.944 1515.27 664.908 1516.32 663.823 1517.41 662.689 1518.55 661.555 1519.68 660.453 1520.8 659.385 1521.91 658.316 1523.03 657.334 1524.11 656.44 1525.15 655.546 1526.2 654.815 1527.16 654.248 1528.03L666.353 1528.03C667.378 1528.03 668.196 1527.99 668.806 1527.92 669.417 1527.84 669.924 1527.67 670.328 1527.41 670.731 1527.15 671.075 1526.75 671.358 1526.22 671.642 1525.68 671.969 1524.95 672.34 1524.01L675.382 1524.01C675.273 1525.56 675.169 1527.12 675.071 1528.69 674.973 1530.26 674.87 1531.82 674.761 1533.37L647.051 1533.37 647.051 1531.66C647.575 1530.49 648.185 1529.32 648.883 1528.18 649.581 1527.03 650.366 1525.87 651.239 1524.7 652.111 1523.52 653.103 1522.3 654.216 1521.05 655.328 1519.79 656.56 1518.49 657.912 1517.14 659.963 1515.09 661.631 1513.34 662.918 1511.89 664.205 1510.44 665.219 1509.15 665.96 1508.01 666.702 1506.88 667.209 1505.83 667.482 1504.87 667.754 1503.91 667.89 1502.89 667.89 1501.8 667.89 1500.68 667.732 1499.66 667.416 1498.72 667.1 1497.78 666.647 1496.99 666.058 1496.33 665.47 1495.68 664.723 1495.17 663.817 1494.79 662.912 1494.42 661.871 1494.24 660.693 1494.24 658.665 1494.24 656.964 1494.79 655.59 1495.89 654.216 1496.99 653.147 1498.59 652.384 1500.68L648.098 1500.68 648.098 1494.3C650.89 1493.15 653.458 1492.31 655.802 1491.78 658.147 1491.26 660.257 1491 662.133 1491Z" fill-rule="evenodd"/><text fill="#000000" fill-opacity="0" font-family="Arial,Arial_MSFontService,sans-serif" font-size="42.3657" x="647.051" y="1528.07">2</text><path d="M717.518 1494.72 772.862 1494.72 772.862 1500.69 717.518 1500.69ZM717.518 1476.08 772.862 1476.08 772.862 1482.05 717.518 1482.05Z" fill-rule="evenodd"/><text fill="#000000" fill-opacity="0" font-family="Arial,Arial_MSFontService,sans-serif" font-size="24.6172" x="717.518" y="1497.62">=</text><path d="M840.748 1458.6C839.251 1458.6 838.098 1458.63 837.289 1458.69L826.193 1509.18C827.571 1509.3 828.679 1509.36 829.518 1509.36 833.381 1509.36 836.713 1508.6 839.513 1507.07 842.313 1505.55 844.799 1503.22 846.97 1500.09 849.141 1496.96 850.848 1493.14 852.091 1488.63 853.334 1484.13 853.955 1479.6 853.955 1475.04 853.955 1471.96 853.611 1469.37 852.922 1467.27 852.233 1465.18 851.282 1463.48 850.069 1462.2 848.857 1460.91 847.449 1459.99 845.847 1459.43 844.245 1458.88 842.545 1458.6 840.748 1458.6ZM819.949 1453.35 838.143 1453.35C843.084 1453.35 847.037 1453.62 850.002 1454.16 852.697 1454.63 855.161 1455.46 857.392 1456.63 859.623 1457.79 861.382 1459.08 862.67 1460.49 864.317 1462.23 865.612 1464.4 866.556 1467.03 867.499 1469.65 867.971 1472.72 867.971 1476.26 867.971 1480.24 867.522 1484.06 866.623 1487.71 865.725 1491.37 864.399 1494.74 862.648 1497.84 860.896 1500.94 858.799 1503.61 856.358 1505.84 853.918 1508.07 851.469 1509.81 849.014 1511.05 846.558 1512.29 843.788 1513.21 840.703 1513.79 837.619 1514.37 833.965 1514.67 829.742 1514.67L807.596 1514.67 808.225 1511.7C809.932 1511.22 811.19 1510.38 811.998 1509.18 812.807 1507.99 813.57 1505.77 814.289 1502.54L822.465 1465.48C822.854 1463.71 823.049 1461.96 823.049 1460.22 823.049 1458.96 822.757 1458.04 822.173 1457.46 821.589 1456.87 820.638 1456.49 819.32 1456.31Z" fill-rule="evenodd"/><text fill="#000000" fill-opacity="0" font-family="Arial,Arial_MSFontService,sans-serif" font-size="61.3184" x="807.596" y="1507">ğ‘«</text><path d="M893.185 1494.17C891.658 1494.17 890.383 1494.57 889.357 1495.37 888.332 1496.16 887.52 1497.33 886.92 1498.87 886.32 1500.4 885.895 1502.28 885.644 1504.49 885.394 1506.71 885.268 1509.22 885.268 1512.04 885.268 1515.28 885.426 1518.09 885.742 1520.46 886.059 1522.83 886.549 1524.77 887.215 1526.3 887.88 1527.83 888.714 1528.95 889.717 1529.67 890.721 1530.39 891.92 1530.75 893.316 1530.75 894.625 1530.75 895.77 1530.41 896.751 1529.73 897.732 1529.06 898.545 1528.01 899.188 1526.58 899.832 1525.15 900.317 1523.34 900.644 1521.15 900.971 1518.95 901.135 1516.36 901.135 1513.38 901.135 1510.02 900.955 1507.13 900.595 1504.71 900.235 1502.29 899.728 1500.3 899.074 1498.74 898.419 1497.18 897.596 1496.03 896.604 1495.29 895.611 1494.54 894.472 1494.17 893.185 1494.17ZM893.316 1491C895.911 1491 898.13 1491.48 899.973 1492.46 901.816 1493.43 903.321 1494.81 904.488 1496.61 905.655 1498.41 906.511 1500.61 907.056 1503.2 907.601 1505.8 907.874 1508.73 907.874 1512 907.874 1519.27 906.587 1524.76 904.014 1528.47 901.44 1532.19 897.711 1534.05 892.825 1534.05 887.983 1534.05 884.385 1532.3 882.029 1528.79 879.674 1525.27 878.496 1519.95 878.496 1512.82 878.496 1509.09 878.861 1505.86 879.592 1503.14 880.323 1500.41 881.348 1498.15 882.667 1496.35 883.987 1494.55 885.552 1493.21 887.362 1492.32 889.172 1491.44 891.157 1491 893.316 1491Z" fill-rule="evenodd"/><text fill="#000000" fill-opacity="0" font-family="Arial,Arial_MSFontService,sans-serif" font-size="43.0527" x="878.496" y="1528.67">0</text><path d="M949.589 1463.77 969.938 1484.07 990.288 1463.77 994.51 1467.95 974.385 1488.43 994.555 1508.83 990.063 1513.32 969.938 1492.79 949.184 1513.14 945.007 1508.92 965.536 1488.43 945.096 1468.26Z" fill-rule="evenodd"/><text fill="#000000" fill-opacity="0" font-family="Arial,Arial_MSFontService,sans-serif" font-size="49.5488" x="945.007" y="1507.12">Ã—</text><path d="M1058.32 1458.6C1056.82 1458.6 1055.67 1458.63 1054.86 1458.69L1043.76 1509.18C1045.14 1509.3 1046.25 1509.36 1047.09 1509.36 1050.95 1509.36 1054.28 1508.6 1057.08 1507.07 1059.88 1505.55 1062.37 1503.22 1064.54 1500.09 1066.71 1496.96 1068.42 1493.14 1069.66 1488.63 1070.9 1484.13 1071.53 1479.6 1071.53 1475.04 1071.53 1471.96 1071.18 1469.37 1070.49 1467.27 1069.8 1465.18 1068.85 1463.48 1067.64 1462.2 1066.43 1460.91 1065.02 1459.99 1063.42 1459.43 1061.82 1458.88 1060.12 1458.6 1058.32 1458.6ZM1037.52 1453.35 1055.71 1453.35C1060.65 1453.35 1064.61 1453.62 1067.57 1454.16 1070.27 1454.63 1072.73 1455.46 1074.96 1456.63 1077.19 1457.79 1078.95 1459.08 1080.24 1460.49 1081.89 1462.23 1083.18 1464.4 1084.13 1467.03 1085.07 1469.65 1085.54 1472.72 1085.54 1476.26 1085.54 1480.24 1085.09 1484.06 1084.19 1487.71 1083.3 1491.37 1081.97 1494.74 1080.22 1497.84 1078.47 1500.94 1076.37 1503.61 1073.93 1505.84 1071.49 1508.07 1069.04 1509.81 1066.58 1511.05 1064.13 1512.29 1061.36 1513.21 1058.27 1513.79 1055.19 1514.37 1051.54 1514.67 1047.31 1514.67L1025.17 1514.67 1025.8 1511.7C1027.5 1511.22 1028.76 1510.38 1029.57 1509.18 1030.38 1507.99 1031.14 1505.77 1031.86 1502.54L1040.04 1465.48C1040.43 1463.71 1040.62 1461.96 1040.62 1460.22 1040.62 1458.96 1040.33 1458.04 1039.74 1457.46 1039.16 1456.87 1038.21 1456.49 1036.89 1456.31Z" fill-rule="evenodd"/><text fill="#000000" fill-opacity="0" font-family="Arial,Arial_MSFontService,sans-serif" font-size="61.3184" x="1025.17" y="1507">ğ‘«</text><path d="M1111.31 1491.23 1113.3 1491.23C1113.26 1492.43 1113.23 1493.5 1113.2 1494.45 1113.18 1495.4 1113.17 1496.32 1113.16 1497.22 1113.14 1498.11 1113.14 1498.99 1113.14 1499.87L1113.14 1524.73C1113.14 1525.4 1113.16 1525.99 1113.2 1526.48 1113.25 1526.97 1113.32 1527.38 1113.42 1527.72 1113.52 1528.06 1113.65 1528.35 1113.81 1528.59 1113.97 1528.83 1114.16 1529.04 1114.38 1529.21 1114.64 1529.47 1114.99 1529.67 1115.43 1529.82 1115.87 1529.96 1116.42 1530.08 1117.1 1530.18 1117.77 1530.27 1118.59 1530.35 1119.54 1530.4 1120.48 1530.46 1121.62 1530.5 1122.95 1530.52L1122.95 1533.37 1097.01 1533.37 1097.01 1530.52C1098.3 1530.48 1099.39 1530.43 1100.28 1530.37 1101.18 1530.32 1101.94 1530.24 1102.57 1530.14 1103.2 1530.04 1103.71 1529.94 1104.09 1529.82 1104.48 1529.7 1104.81 1529.55 1105.09 1529.37 1105.4 1529.18 1105.66 1528.96 1105.88 1528.74 1106.09 1528.51 1106.27 1528.22 1106.4 1527.87 1106.53 1527.52 1106.63 1527.09 1106.71 1526.59 1106.79 1526.09 1106.83 1525.47 1106.83 1524.73L1106.83 1501.27C1106.83 1500.42 1106.66 1499.82 1106.33 1499.47 1106.01 1499.12 1105.54 1498.95 1104.93 1498.95 1104.25 1498.95 1103.25 1499.3 1101.92 1500 1100.59 1500.69 1098.86 1501.73 1096.75 1503.1 1096.47 1502.6 1096.2 1502.1 1095.96 1501.6 1095.72 1501.1 1095.47 1500.58 1095.21 1500.06 1097.92 1498.58 1100.59 1497.1 1103.24 1495.63 1105.89 1494.16 1108.58 1492.69 1111.31 1491.23Z" fill-rule="evenodd"/><text fill="#000000" fill-opacity="0" font-family="Arial,Arial_MSFontService,sans-serif" font-size="42.1367" x="1095.21" y="1528.1">1</text><path d="M1138.01 1504.24 1145.87 1504.24C1146.29 1506.34 1146.5 1508.41 1146.5 1510.44 1146.5 1512.54 1146.14 1514.46 1145.42 1516.19 1144.7 1517.93 1143.55 1519.66 1141.98 1521.38 1140.41 1523.1 1138.25 1525 1135.49 1527.06L1133.07 1524.32C1134.59 1522.89 1135.7 1521.59 1136.39 1520.44 1137.08 1519.28 1137.57 1517.97 1137.87 1516.51 1138.17 1515.04 1138.32 1513.2 1138.32 1510.98 1138.32 1508.71 1138.22 1506.46 1138.01 1504.24Z" fill-rule="evenodd"/><text fill="#000000" fill-opacity="0" font-family="Arial,Arial_MSFontService,sans-serif" font-size="22.8203" x="1133.07" y="1524.21">,</text><path d="M1243.75 1471C1246.53 1471 1249.07 1471.17 1251.36 1471.5 1253.65 1471.82 1255.94 1472.39 1258.21 1473.2L1256.19 1482.64 1252.55 1482.64C1252.22 1479.97 1251.35 1477.95 1249.92 1476.57 1248.5 1475.19 1246.26 1474.5 1243.21 1474.5 1240.84 1474.5 1238.93 1475.11 1237.46 1476.32 1235.99 1477.54 1235.26 1479.13 1235.26 1481.11 1235.26 1482.19 1235.44 1483.14 1235.82 1483.96 1236.19 1484.78 1236.95 1485.69 1238.09 1486.68 1239.23 1487.67 1240.99 1488.88 1243.39 1490.32 1245.27 1491.46 1246.79 1492.5 1247.93 1493.44 1249.06 1494.38 1249.96 1495.32 1250.62 1496.25 1251.28 1497.18 1251.76 1498.16 1252.06 1499.19 1252.36 1500.22 1252.51 1501.47 1252.51 1502.94 1252.51 1505.61 1251.8 1507.89 1250.37 1509.79 1248.95 1511.69 1247.02 1513.11 1244.58 1514.04 1242.14 1514.96 1239.36 1515.43 1236.25 1515.43 1233.76 1515.43 1231.32 1515.24 1228.92 1514.87 1226.53 1514.49 1223.86 1513.86 1220.93 1512.96L1223.08 1503.17 1226.59 1503.17C1226.71 1506.04 1227.52 1508.21 1229.01 1509.68 1230.51 1511.15 1232.89 1511.88 1236.16 1511.88 1239 1511.88 1241.22 1511.24 1242.83 1509.97 1244.43 1508.7 1245.23 1506.89 1245.23 1504.56 1245.23 1503.21 1245.01 1502.05 1244.56 1501.08 1244.11 1500.1 1243.37 1499.17 1242.35 1498.27 1241.34 1497.37 1239.72 1496.25 1237.5 1494.9 1235.17 1493.49 1233.35 1492.22 1232.05 1491.08 1230.74 1489.94 1229.76 1488.71 1229.1 1487.38 1228.44 1486.04 1228.11 1484.51 1228.11 1482.77 1228.11 1480.4 1228.75 1478.33 1230.02 1476.55 1231.3 1474.77 1233.12 1473.4 1235.48 1472.44 1237.85 1471.48 1240.6 1471 1243.75 1471Z" fill-rule="evenodd"/><text fill="#000000" fill-opacity="0" font-family="Arial,Arial_MSFontService,sans-serif" font-size="44.4277" x="1220.93" y="1509.88">ğ‘ </text><path d="M1278.36 1491C1280.63 1491 1282.57 1491.26 1284.17 1491.77 1285.77 1492.28 1287.07 1492.97 1288.08 1493.85 1289.08 1494.72 1289.81 1495.76 1290.25 1496.99 1290.7 1498.21 1290.92 1499.53 1290.92 1500.94 1290.92 1501.8 1290.86 1502.59 1290.74 1503.32 1290.62 1504.05 1290.42 1504.77 1290.12 1505.48 1289.83 1506.18 1289.44 1506.9 1288.96 1507.62 1288.48 1508.34 1287.88 1509.1 1287.16 1509.91 1286.62 1510.61 1285.91 1511.41 1285.04 1512.33 1284.16 1513.25 1283.21 1514.23 1282.17 1515.27 1281.14 1516.32 1280.05 1517.41 1278.92 1518.55 1277.78 1519.68 1276.68 1520.8 1275.61 1521.91 1274.55 1523.03 1273.56 1524.11 1272.67 1525.15 1271.78 1526.2 1271.04 1527.16 1270.48 1528.03L1282.58 1528.03C1283.61 1528.03 1284.42 1527.99 1285.04 1527.92 1285.65 1527.84 1286.15 1527.67 1286.56 1527.41 1286.96 1527.15 1287.3 1526.75 1287.59 1526.22 1287.87 1525.68 1288.2 1524.95 1288.57 1524.01L1291.61 1524.01C1291.5 1525.56 1291.4 1527.12 1291.3 1528.69 1291.2 1530.26 1291.1 1531.82 1290.99 1533.37L1263.28 1533.37 1263.28 1531.66C1263.8 1530.49 1264.41 1529.32 1265.11 1528.18 1265.81 1527.03 1266.6 1525.87 1267.47 1524.7 1268.34 1523.52 1269.33 1522.3 1270.44 1521.05 1271.56 1519.79 1272.79 1518.49 1274.14 1517.14 1276.19 1515.09 1277.86 1513.34 1279.15 1511.89 1280.43 1510.44 1281.45 1509.15 1282.19 1508.01 1282.93 1506.88 1283.44 1505.83 1283.71 1504.87 1283.98 1503.91 1284.12 1502.89 1284.12 1501.8 1284.12 1500.68 1283.96 1499.66 1283.65 1498.72 1283.33 1497.78 1282.88 1496.99 1282.29 1496.33 1281.7 1495.68 1280.95 1495.17 1280.05 1494.79 1279.14 1494.42 1278.1 1494.24 1276.92 1494.24 1274.89 1494.24 1273.19 1494.79 1271.82 1495.89 1270.44 1496.99 1269.38 1498.59 1268.61 1500.68L1264.33 1500.68 1264.33 1494.3C1267.12 1493.15 1269.69 1492.31 1272.03 1491.78 1274.38 1491.26 1276.49 1491 1278.36 1491Z" fill-rule="evenodd"/><text fill="#000000" fill-opacity="0" font-family="Arial,Arial_MSFontService,sans-serif" font-size="42.3657" x="1263.28" y="1528.07">2</text><path d="M1315.94 1494.72 1371.28 1494.72 1371.28 1500.69 1315.94 1500.69ZM1315.94 1476.08 1371.28 1476.08 1371.28 1482.05 1315.94 1482.05Z" fill-rule="evenodd"/><text fill="#000000" fill-opacity="0" font-family="Arial,Arial_MSFontService,sans-serif" font-size="24.6172" x="1315.94" y="1497.62">=</text><path d="M1428.93 1456.45C1426.86 1456.45 1425.13 1457.06 1423.74 1458.29 1422.35 1459.52 1421.22 1461.28 1420.37 1463.59 1419.52 1465.89 1418.91 1468.7 1418.55 1472.01 1418.19 1475.32 1418.01 1479.06 1418.01 1483.22 1418.01 1492.98 1418.92 1500.15 1420.73 1504.71 1422.54 1509.28 1425.35 1511.57 1429.15 1511.57 1432.78 1511.57 1435.46 1509.42 1437.22 1505.12 1438.97 1500.82 1439.84 1494.17 1439.84 1485.15 1439.84 1478.26 1439.4 1472.69 1438.5 1468.42 1437.6 1464.15 1436.35 1461.09 1434.75 1459.23 1433.14 1457.37 1431.2 1456.45 1428.93 1456.45ZM1429.15 1452.63C1435.71 1452.63 1440.59 1455.16 1443.8 1460.22 1447 1465.28 1448.6 1472.93 1448.6 1483.17 1448.6 1493.78 1446.89 1501.79 1443.46 1507.23 1440.03 1512.67 1435.02 1515.38 1428.43 1515.38 1421.97 1515.38 1417.15 1512.84 1413.99 1507.75 1410.83 1502.66 1409.25 1494.93 1409.25 1484.57 1409.25 1479.06 1409.74 1474.3 1410.71 1470.28 1411.69 1466.27 1413.05 1462.95 1414.8 1460.33 1416.55 1457.71 1418.66 1455.77 1421.11 1454.51 1423.57 1453.26 1426.25 1452.63 1429.15 1452.63Z" fill-rule="evenodd"/><text fill="#000000" fill-opacity="0" font-family="Arial,Arial_MSFontService,sans-serif" font-size="62.7559" x="1409.25" y="1507.54">0</text></g></svg>