<svg width="1388" height="1433" xmlns="http://www.w3.org/2000/svg" xmlns:xlink="http://www.w3.org/1999/xlink" xml:space="preserve" overflow="hidden"><g transform="translate(-305 -212)"><path d="M1432.5 483.302 1093.28 377.5 757.5 660.5" stroke="#000000" stroke-width="6.875" stroke-miterlimit="8" stroke-dasharray="27.5 20.625" fill="none" fill-rule="evenodd"/><path d="M1433.5 1186.3 1094.28 1080.5 758.5 1363.5" stroke="#000000" stroke-width="6.875" stroke-miterlimit="8" stroke-dasharray="27.5 20.625" fill="none" fill-rule="evenodd"/><path d="M1094.5 377.5 1094.5 767.227" stroke="#000000" stroke-width="6.875" stroke-miterlimit="8" stroke-dasharray="27.5 20.625" fill="none" fill-rule="evenodd"/><path d="M773 1363C961.958 1348.68 1150.92 1334.35 1247.47 1282.22 1344.03 1230.08 1391.59 1126.09 1352.34 1050.18 1313.08 974.262 1006.51 919.26 1011.96 826.731 1017.4 734.202 1201.2 614.601 1385 495" stroke="#0F9ED5" stroke-width="13.75" stroke-miterlimit="8" fill="none" fill-rule="evenodd"/><path d="M1094.5 1471.5 757.5 1366.67 757.5 661.5 1094.5 766.33Z" stroke="#000000" stroke-width="6.875" stroke-miterlimit="8" stroke-dasharray="27.5 20.625" fill="none" fill-rule="evenodd"/><path d="M0 338 286.613 0 986 0 699.387 338Z" stroke="#000000" stroke-width="6.875" stroke-miterlimit="8" stroke-dasharray="27.5 20.625" fill="none" fill-rule="evenodd" transform="matrix(-6.12323e-17 -1 -1 6.12323e-17 1432.5 1471.5)"/><path d="M6.6696-7.86537 136.21 101.981 122.871 117.712-6.6696 7.86537ZM141.684 79.5808 168.867 143.195 101.666 126.773Z" transform="matrix(1 0 0 -1 1094.5 1471.69)"/><path d="M1090.55 1481.02 923.625 1428.75 929.788 1409.07 1096.72 1461.33ZM927.304 1451.51 877.5 1403.5 945.793 1392.47Z"/><path d="M10.3125-1.24984e-05 10.3128 246.211-10.3122 246.211-10.3125 1.24984e-05ZM30.9378 235.899 0.000360892 297.774-30.9372 235.899Z" transform="matrix(1 0 0 -1 1094.5 1471.27)"/><path d="M1068 1465C1068 1450.64 1079.64 1439 1094 1439 1108.36 1439 1120 1450.64 1120 1465 1120 1479.36 1108.36 1491 1094 1491 1079.64 1491 1068 1479.36 1068 1465Z" stroke="#000000" stroke-width="13.75" stroke-miterlimit="8" fill="#FFC000" fill-rule="evenodd"/><path d="M1119.8 1529.83C1117.79 1529.83 1116.05 1529.87 1114.59 1529.94L1107.98 1560.18 1110.77 1560.18C1115.68 1560.18 1119.46 1559.41 1122.11 1557.87 1124.76 1556.33 1126.78 1554.03 1128.17 1550.97 1129.57 1547.9 1130.27 1544.46 1130.27 1540.63 1130.27 1537.01 1129.42 1534.31 1127.72 1532.52 1126.02 1530.73 1123.38 1529.83 1119.8 1529.83ZM1093.8 1523.55 1120.6 1523.55C1124.36 1523.55 1127.41 1523.66 1129.73 1523.9 1132.06 1524.13 1134.32 1524.67 1136.53 1525.51 1138.73 1526.35 1140.58 1527.46 1142.09 1528.84 1143.59 1530.22 1144.74 1531.88 1145.52 1533.83 1146.31 1535.78 1146.71 1538.01 1146.71 1540.52 1146.71 1544.53 1145.96 1548.12 1144.48 1551.29 1142.99 1554.46 1140.89 1557.19 1138.17 1559.48 1135.44 1561.77 1131.98 1563.5 1127.77 1564.66 1123.56 1565.83 1118.86 1566.41 1113.67 1566.41L1112.12 1566.41C1109.93 1566.41 1108.1 1566.32 1106.64 1566.14L1103.04 1582.36C1102.79 1583.51 1102.61 1584.5 1102.5 1585.34 1102.39 1586.18 1102.34 1587.28 1102.34 1588.64 1102.34 1590.29 1102.76 1591.46 1103.6 1592.14 1104.44 1592.82 1105.76 1593.21 1107.55 1593.32L1106.8 1596.86 1079.03 1596.86 1079.78 1593.32C1081.82 1592.74 1083.33 1591.74 1084.29 1590.31 1085.26 1588.88 1086.17 1586.23 1087.03 1582.36L1096.81 1538.05C1097.27 1535.94 1097.51 1533.84 1097.51 1531.76 1097.51 1530.26 1097.16 1529.16 1096.46 1528.46 1095.76 1527.76 1094.62 1527.31 1093.05 1527.09Z" fill-rule="evenodd"/><text fill="#000000" fill-opacity="0" font-family="Arial,Arial_MSFontService,sans-serif" font-size="73.3154" x="1079.03" y="1587.7">𝑷</text><path d="M1174.76 1572.52C1172.93 1572.52 1171.41 1573 1170.19 1573.95 1168.96 1574.9 1167.99 1576.29 1167.28 1578.13 1166.56 1579.97 1166.05 1582.2 1165.75 1584.85 1165.45 1587.49 1165.3 1590.49 1165.3 1593.85 1165.3 1597.73 1165.49 1601.08 1165.87 1603.91 1166.25 1606.74 1166.83 1609.06 1167.63 1610.88 1168.42 1612.71 1169.42 1614.05 1170.62 1614.91 1171.81 1615.77 1173.25 1616.2 1174.91 1616.2 1176.48 1616.2 1177.84 1615.79 1179.01 1614.98 1180.19 1614.18 1181.16 1612.92 1181.92 1611.22 1182.69 1609.51 1183.27 1607.35 1183.66 1604.73 1184.05 1602.11 1184.25 1599.02 1184.25 1595.45 1184.25 1591.44 1184.03 1587.99 1183.6 1585.1 1183.17 1582.21 1182.57 1579.83 1181.79 1577.97 1181.01 1576.11 1180.02 1574.74 1178.84 1573.85 1177.65 1572.97 1176.29 1572.52 1174.76 1572.52ZM1174.91 1568.73C1178.01 1568.73 1180.66 1569.31 1182.86 1570.47 1185.06 1571.63 1186.86 1573.29 1188.25 1575.43 1189.65 1577.58 1190.67 1580.21 1191.32 1583.31 1191.97 1586.4 1192.3 1589.91 1192.3 1593.81 1192.3 1602.48 1190.76 1609.04 1187.69 1613.48 1184.61 1617.92 1180.16 1620.14 1174.33 1620.14 1168.55 1620.14 1164.25 1618.04 1161.44 1613.85 1158.62 1609.66 1157.22 1603.31 1157.22 1594.79 1157.22 1590.34 1157.65 1586.48 1158.53 1583.23 1159.4 1579.97 1160.62 1577.27 1162.2 1575.12 1163.77 1572.97 1165.64 1571.37 1167.8 1570.32 1169.97 1569.26 1172.34 1568.73 1174.91 1568.73Z" fill-rule="evenodd"/><text fill="#000000" fill-opacity="0" font-family="Arial,Arial_MSFontService,sans-serif" font-size="51.4062" x="1157.22" y="1613.72">0</text><path d="M1316.37 1367.99C1314.58 1367.99 1313.2 1368.03 1312.24 1368.1L1298.97 1428.47C1300.62 1428.61 1301.94 1428.68 1302.94 1428.68 1307.56 1428.68 1311.55 1427.77 1314.89 1425.94 1318.24 1424.12 1321.21 1421.33 1323.81 1417.59 1326.41 1413.85 1328.45 1409.29 1329.93 1403.9 1331.42 1398.51 1332.16 1393.09 1332.16 1387.65 1332.16 1383.96 1331.75 1380.86 1330.93 1378.36 1330.1 1375.85 1328.97 1373.83 1327.52 1372.29 1326.07 1370.75 1324.38 1369.65 1322.47 1368.98 1320.55 1368.32 1318.52 1367.99 1316.37 1367.99ZM1291.5 1361.71 1313.26 1361.71C1319.16 1361.71 1323.89 1362.03 1327.44 1362.67 1330.66 1363.25 1333.6 1364.23 1336.27 1365.63 1338.94 1367.02 1341.04 1368.56 1342.58 1370.25 1344.55 1372.32 1346.1 1374.93 1347.23 1378.06 1348.36 1381.19 1348.92 1384.87 1348.92 1389.1 1348.92 1393.86 1348.38 1398.43 1347.31 1402.8 1346.23 1407.16 1344.65 1411.2 1342.56 1414.91 1340.46 1418.61 1337.95 1421.8 1335.04 1424.47 1332.12 1427.14 1329.19 1429.21 1326.25 1430.7 1323.32 1432.18 1320.01 1433.28 1316.32 1433.97 1312.63 1434.67 1308.26 1435.02 1303.21 1435.02L1276.73 1435.02 1277.48 1431.48C1279.53 1430.9 1281.03 1429.9 1282 1428.47 1282.96 1427.04 1283.88 1424.39 1284.74 1420.52L1294.51 1376.21C1294.98 1374.1 1295.21 1372 1295.21 1369.92 1295.21 1368.42 1294.86 1367.32 1294.16 1366.62 1293.46 1365.92 1292.33 1365.47 1290.75 1365.25Z" fill-rule="evenodd"/><text fill="#000000" fill-opacity="0" font-family="Arial,Arial_MSFontService,sans-serif" font-size="73.3154" x="1276.73" y="1425.86">𝑫</text><path d="M1379.34 1410.68C1377.51 1410.68 1375.99 1411.16 1374.77 1412.11 1373.54 1413.06 1372.57 1414.45 1371.85 1416.29 1371.14 1418.12 1370.63 1420.36 1370.33 1423.01 1370.03 1425.65 1369.88 1428.65 1369.88 1432.01 1369.88 1435.89 1370.07 1439.24 1370.45 1442.07 1370.83 1444.9 1371.41 1447.22 1372.21 1449.04 1373 1450.87 1374 1452.21 1375.19 1453.07 1376.39 1453.93 1377.82 1454.35 1379.49 1454.35 1381.05 1454.35 1382.42 1453.95 1383.59 1453.14 1384.77 1452.34 1385.74 1451.08 1386.5 1449.37 1387.27 1447.67 1387.85 1445.51 1388.24 1442.89 1388.63 1440.27 1388.83 1437.18 1388.83 1433.61 1388.83 1429.6 1388.61 1426.15 1388.18 1423.26 1387.75 1420.37 1387.15 1417.99 1386.37 1416.13 1385.59 1414.27 1384.6 1412.9 1383.42 1412.01 1382.23 1411.13 1380.87 1410.68 1379.34 1410.68ZM1379.49 1406.89C1382.59 1406.89 1385.24 1407.47 1387.44 1408.63 1389.64 1409.79 1391.44 1411.44 1392.83 1413.59 1394.22 1415.74 1395.25 1418.37 1395.9 1421.46 1396.55 1424.56 1396.87 1428.07 1396.87 1431.97 1396.87 1440.64 1395.34 1447.2 1392.27 1451.64 1389.19 1456.08 1384.74 1458.3 1378.91 1458.3 1373.12 1458.3 1368.83 1456.2 1366.02 1452.01 1363.2 1447.82 1361.8 1441.46 1361.8 1432.95 1361.8 1428.5 1362.23 1424.64 1363.1 1421.39 1363.98 1418.13 1365.2 1415.43 1366.78 1413.28 1368.35 1411.13 1370.22 1409.53 1372.38 1408.48 1374.54 1407.42 1376.91 1406.89 1379.49 1406.89Z" fill-rule="evenodd"/><text fill="#000000" fill-opacity="0" font-family="Arial,Arial_MSFontService,sans-serif" font-size="51.4062" x="1361.8" y="1451.87">0</text><path d="M879.274 1459.42C877.483 1459.42 876.105 1459.45 875.138 1459.52L861.871 1519.9C863.519 1520.04 864.843 1520.11 865.846 1520.11 870.465 1520.11 874.449 1519.2 877.797 1517.37 881.145 1515.54 884.117 1512.76 886.713 1509.02 889.309 1505.28 891.35 1500.71 892.836 1495.32 894.322 1489.93 895.065 1484.52 895.065 1479.07 895.065 1475.39 894.653 1472.29 893.829 1469.78 893.006 1467.28 891.869 1465.25 890.419 1463.71 888.969 1462.17 887.286 1461.07 885.37 1460.41 883.454 1459.75 881.422 1459.42 879.274 1459.42ZM854.406 1453.13 876.159 1453.13C882.067 1453.13 886.793 1453.45 890.338 1454.1 893.561 1454.67 896.506 1455.66 899.174 1457.05 901.841 1458.45 903.945 1459.99 905.485 1461.67 907.454 1463.75 909.003 1466.35 910.131 1469.49 911.259 1472.62 911.823 1476.3 911.823 1480.53 911.823 1485.29 911.286 1489.85 910.211 1494.22 909.137 1498.59 907.553 1502.63 905.458 1506.33 903.363 1510.04 900.857 1513.23 897.938 1515.89 895.02 1518.56 892.093 1520.64 889.157 1522.12 886.22 1523.61 882.908 1524.7 879.22 1525.4 875.532 1526.1 871.163 1526.45 866.115 1526.45L839.635 1526.45 840.387 1522.9C842.428 1522.33 843.932 1521.33 844.899 1519.9 845.866 1518.46 846.779 1515.81 847.638 1511.95L857.413 1467.63C857.879 1465.52 858.112 1463.43 858.112 1461.35 858.112 1459.85 857.763 1458.75 857.064 1458.05 856.366 1457.35 855.229 1456.89 853.654 1456.68Z" fill-rule="evenodd"/><text fill="#000000" fill-opacity="0" font-family="Arial,Arial_MSFontService,sans-serif" font-size="73.3154" x="839.635" y="1517.28">𝑫</text><path d="M942.897 1498.59 945.28 1498.59C945.228 1500.03 945.189 1501.31 945.163 1502.44 945.137 1503.57 945.117 1504.67 945.104 1505.74 945.091 1506.81 945.085 1507.86 945.085 1508.91L945.085 1538.59C945.085 1539.4 945.111 1540.1 945.163 1540.68 945.215 1541.27 945.299 1541.76 945.417 1542.17 945.534 1542.57 945.69 1542.92 945.885 1543.2 946.081 1543.49 946.308 1543.74 946.569 1543.95 946.881 1544.26 947.298 1544.5 947.819 1544.67 948.34 1544.84 949.004 1544.98 949.811 1545.1 950.618 1545.21 951.588 1545.31 952.721 1545.37 953.854 1545.44 955.215 1545.48 956.803 1545.51L956.803 1548.91 925.827 1548.91 925.827 1545.51C927.363 1545.46 928.665 1545.4 929.733 1545.33 930.801 1545.27 931.712 1545.18 932.467 1545.06 933.223 1544.94 933.828 1544.81 934.284 1544.67 934.74 1544.52 935.137 1544.35 935.475 1544.14 935.84 1543.91 936.152 1543.65 936.413 1543.38 936.673 1543.11 936.881 1542.76 937.038 1542.34 937.194 1541.93 937.318 1541.42 937.409 1540.82 937.5 1540.22 937.545 1539.48 937.545 1538.59L937.545 1510.59C937.545 1509.57 937.35 1508.85 936.96 1508.44 936.569 1508.02 936.009 1507.81 935.28 1507.81 934.473 1507.81 933.275 1508.23 931.686 1509.06 930.098 1509.9 928.04 1511.13 925.514 1512.77 925.176 1512.17 924.863 1511.58 924.577 1510.98 924.29 1510.38 923.991 1509.77 923.678 1509.14 926.907 1507.37 930.104 1505.61 933.268 1503.85 936.432 1502.09 939.642 1500.34 942.897 1498.59Z" fill-rule="evenodd"/><text fill="#000000" fill-opacity="0" font-family="Arial,Arial_MSFontService,sans-serif" font-size="50.3125" x="923.678" y="1542.62">1</text><path d="M1174.62 1153.24C1172.82 1153.24 1171.45 1153.28 1170.48 1153.35L1157.21 1213.72C1158.86 1213.87 1160.18 1213.94 1161.19 1213.94 1165.81 1213.94 1169.79 1213.02 1173.14 1211.2 1176.49 1209.37 1179.46 1206.59 1182.05 1202.85 1184.65 1199.1 1186.69 1194.54 1188.18 1189.15 1189.66 1183.76 1190.41 1178.34 1190.41 1172.9 1190.41 1169.21 1189.99 1166.12 1189.17 1163.61 1188.35 1161.1 1187.21 1159.08 1185.76 1157.54 1184.31 1156 1182.63 1154.9 1180.71 1154.24 1178.8 1153.57 1176.76 1153.24 1174.62 1153.24ZM1149.75 1146.96 1171.5 1146.96C1177.41 1146.96 1182.13 1147.28 1185.68 1147.93 1188.9 1148.5 1191.85 1149.48 1194.52 1150.88 1197.18 1152.28 1199.29 1153.82 1200.83 1155.5 1202.8 1157.58 1204.34 1160.18 1205.47 1163.31 1206.6 1166.45 1207.16 1170.13 1207.16 1174.35 1207.16 1179.11 1206.63 1183.68 1205.55 1188.05 1204.48 1192.42 1202.89 1196.45 1200.8 1200.16 1198.7 1203.87 1196.2 1207.05 1193.28 1209.72 1190.36 1212.39 1187.43 1214.47 1184.5 1215.95 1181.56 1217.44 1178.25 1218.53 1174.56 1219.23 1170.87 1219.93 1166.5 1220.27 1161.46 1220.27L1134.98 1220.27 1135.73 1216.73C1137.77 1216.16 1139.27 1215.15 1140.24 1213.72 1141.21 1212.29 1142.12 1209.64 1142.98 1205.77L1152.75 1161.46C1153.22 1159.35 1153.45 1157.25 1153.45 1155.18 1153.45 1153.67 1153.1 1152.57 1152.41 1151.87 1151.71 1151.18 1150.57 1150.72 1148.99 1150.5Z" fill-rule="evenodd"/><text fill="#000000" fill-opacity="0" font-family="Arial,Arial_MSFontService,sans-serif" font-size="73.3154" x="1134.98" y="1211.11">𝑫</text><path d="M1237.74 1192.15C1240.44 1192.15 1242.75 1192.45 1244.67 1193.07 1246.58 1193.68 1248.14 1194.5 1249.34 1195.55 1250.53 1196.59 1251.4 1197.84 1251.93 1199.3 1252.47 1200.75 1252.74 1202.33 1252.74 1204.02 1252.74 1205.04 1252.66 1205.98 1252.52 1206.85 1252.38 1207.73 1252.13 1208.59 1251.78 1209.43 1251.43 1210.28 1250.96 1211.13 1250.39 1211.99 1249.82 1212.85 1249.1 1213.76 1248.24 1214.73 1247.59 1215.56 1246.75 1216.52 1245.7 1217.62 1244.66 1218.71 1243.52 1219.88 1242.29 1221.13 1241.05 1222.38 1239.75 1223.68 1238.4 1225.04 1237.05 1226.39 1235.73 1227.73 1234.45 1229.06 1233.18 1230.39 1232.01 1231.68 1230.94 1232.93 1229.87 1234.18 1229 1235.32 1228.32 1236.37L1242.77 1236.37C1244 1236.37 1244.97 1236.32 1245.7 1236.23 1246.43 1236.14 1247.04 1235.94 1247.52 1235.62 1248 1235.31 1248.41 1234.84 1248.75 1234.2 1249.09 1233.56 1249.48 1232.68 1249.92 1231.56L1253.56 1231.56C1253.43 1233.41 1253.3 1235.27 1253.18 1237.15 1253.07 1239.02 1252.94 1240.88 1252.81 1242.73L1219.73 1242.73 1219.73 1240.7C1220.35 1239.3 1221.08 1237.91 1221.91 1236.54 1222.75 1235.17 1223.69 1233.79 1224.73 1232.38 1225.77 1230.98 1226.95 1229.52 1228.28 1228.03 1229.61 1226.53 1231.08 1224.97 1232.7 1223.36 1235.14 1220.91 1237.14 1218.82 1238.67 1217.09 1240.21 1215.36 1241.42 1213.81 1242.31 1212.46 1243.19 1211.11 1243.8 1209.86 1244.12 1208.71 1244.45 1207.56 1244.61 1206.34 1244.61 1205.04 1244.61 1203.71 1244.42 1202.49 1244.04 1201.37 1243.67 1200.25 1243.13 1199.3 1242.42 1198.51 1241.72 1197.73 1240.83 1197.12 1239.75 1196.68 1238.67 1196.24 1237.42 1196.01 1236.02 1196.01 1233.59 1196.01 1231.56 1196.67 1229.92 1197.99 1228.28 1199.3 1227.01 1201.21 1226.09 1203.71L1220.98 1203.71 1220.98 1196.09C1224.31 1194.71 1227.38 1193.71 1230.18 1193.08 1232.98 1192.46 1235.5 1192.15 1237.74 1192.15Z" fill-rule="evenodd"/><text fill="#000000" fill-opacity="0" font-family="Arial,Arial_MSFontService,sans-serif" font-size="50.5859" x="1219.73" y="1236.41">2</text><path d="M1012.47 827.562 639.5 748.5" stroke="#000000" stroke-width="4.58333" stroke-miterlimit="8" fill="none" fill-rule="evenodd"/><text font-family="Times New Roman,Times New Roman_MSFontService,sans-serif" font-weight="400" font-size="92" transform="matrix(1 0 0 1 360.574 768)">Object</text><path d="M765.397 663.484 608.5 614.5" stroke="#D1D1D1" stroke-width="4.58333" stroke-miterlimit="8" fill="none" fill-rule="evenodd"/><path d="M1105.4 379.484 948.5 330.5" stroke="#D1D1D1" stroke-width="4.58333" stroke-miterlimit="8" fill="none" fill-rule="evenodd"/><path d="M0 0 112.578 94.3282" stroke="#D1D1D1" stroke-width="4.58333" stroke-miterlimit="8" fill="none" fill-rule="evenodd" transform="matrix(1 0 0 -1 1094.5 377.828)"/><path d="M19.0379 12.9619 318.203 263.63 315.259 267.144 16.0942 16.475ZM12.2479 28.2011 0 0 29.9096 7.12236ZM322.049 251.904 334.297 280.105 304.387 272.983Z" fill="#D1D1D1" transform="matrix(1 0 0 -1 651.5 625.605)"/><path d="M0 0 112.578 94.3282" stroke="#D1D1D1" stroke-width="4.58333" stroke-miterlimit="8" fill="none" fill-rule="evenodd" transform="matrix(1 0 0 -1 1425.5 489.828)"/><path d="M1485.57 411.083 1198.69 321.517 1200.06 317.142 1486.94 406.708ZM1485.98 394.404 1508.13 415.725 1477.78 420.655ZM1199.65 333.821 1177.5 312.5 1207.85 307.57Z" fill="#D1D1D1"/><path d="M0 0 112.578 94.3282" stroke="#D1D1D1" stroke-width="4.58333" stroke-miterlimit="8" fill="none" fill-rule="evenodd" transform="matrix(1 0 0 -1 1431.5 1186.83)"/><path d="M2.29168 22.9158 2.29202 666.303-2.29132 666.303-2.29165 22.9158ZM-13.75 27.5 0 0 13.75 27.5ZM13.7503 661.719 0.000360892 689.219-13.7497 661.719Z" fill="#D1D1D1" transform="matrix(1 0 0 -1 1509.5 1113.72)"/><path d="M736.879 400.393C740.209 400.393 743.244 400.59 745.983 400.983 748.723 401.377 751.453 402.058 754.174 403.024L751.757 414.304 747.407 414.304C747.013 411.117 745.965 408.7 744.265 407.053 742.564 405.406 739.887 404.582 736.235 404.582 733.406 404.582 731.114 405.307 729.36 406.757 727.605 408.208 726.728 410.114 726.728 412.478 726.728 413.767 726.952 414.904 727.399 415.888 727.847 416.873 728.751 417.956 730.112 419.138 731.472 420.319 733.585 421.77 736.45 423.488 738.705 424.849 740.514 426.093 741.874 427.221 743.235 428.349 744.309 429.468 745.097 430.578 745.885 431.688 746.458 432.861 746.816 434.096 747.174 435.332 747.353 436.827 747.353 438.581 747.353 441.768 746.503 444.498 744.802 446.772 743.101 449.046 740.791 450.738 737.873 451.848 734.955 452.958 731.633 453.513 727.91 453.513 724.938 453.513 722.019 453.289 719.155 452.841 716.29 452.394 713.103 451.633 709.594 450.559L712.172 438.85 716.362 438.85C716.505 442.287 717.472 444.883 719.262 446.638 721.052 448.392 723.899 449.27 727.802 449.27 731.204 449.27 733.862 448.509 735.778 446.987 737.694 445.465 738.652 443.308 738.652 440.515 738.652 438.903 738.383 437.516 737.846 436.352 737.309 435.188 736.432 434.069 735.214 432.995 733.997 431.921 732.063 430.578 729.413 428.967 726.62 427.284 724.445 425.762 722.888 424.401 721.33 423.041 720.157 421.564 719.37 419.97 718.582 418.377 718.188 416.542 718.188 414.465 718.188 411.636 718.949 409.156 720.471 407.026 721.992 404.895 724.168 403.257 726.996 402.111 729.825 400.966 733.12 400.393 736.879 400.393Z" fill-rule="evenodd"/><text fill="#000000" fill-opacity="0" font-family="Arial,Arial_MSFontService,sans-serif" font-size="53.1201" x="709.594" y="446.873">𝑠</text><path d="M778.381 428.261C776.558 428.261 775.035 428.736 773.811 429.687 772.587 430.637 771.617 432.031 770.901 433.867 770.184 435.702 769.677 437.942 769.377 440.585 769.078 443.229 768.928 446.23 768.928 449.589 768.928 453.469 769.117 456.822 769.494 459.648 769.872 462.473 770.458 464.798 771.252 466.62 772.046 468.443 773.042 469.785 774.24 470.644 775.438 471.503 776.871 471.933 778.537 471.933 780.1 471.933 781.467 471.529 782.639 470.722 783.811 469.915 784.781 468.658 785.549 466.952 786.317 465.247 786.897 463.085 787.287 460.468 787.678 457.851 787.873 454.758 787.873 451.191 787.873 447.18 787.658 443.73 787.229 440.839 786.799 437.949 786.193 435.572 785.412 433.71 784.631 431.848 783.648 430.475 782.463 429.589 781.278 428.704 779.917 428.261 778.381 428.261ZM778.537 424.472C781.636 424.472 784.286 425.051 786.486 426.21 788.687 427.369 790.484 429.023 791.877 431.171 793.27 433.32 794.292 435.943 794.943 439.042 795.595 442.141 795.92 445.644 795.92 449.55 795.92 458.222 794.384 464.778 791.311 469.218 788.238 473.658 783.785 475.878 777.951 475.878 772.17 475.878 767.873 473.782 765.061 469.589 762.248 465.396 760.842 459.042 760.842 450.527 760.842 446.074 761.278 442.219 762.151 438.964 763.023 435.709 764.247 433.007 765.822 430.859 767.398 428.71 769.266 427.109 771.428 426.054 773.589 424.999 775.959 424.472 778.537 424.472Z" fill-rule="evenodd"/><text fill="#000000" fill-opacity="0" font-family="Arial,Arial_MSFontService,sans-serif" font-size="51.4062" x="760.842" y="469.452">0</text><path d="M1361.83 278.64C1365.16 278.64 1368.19 278.837 1370.93 279.231 1373.67 279.625 1376.4 280.305 1379.12 281.272L1376.71 292.551 1372.36 292.551C1371.96 289.364 1370.91 286.947 1369.21 285.3 1367.51 283.653 1364.84 282.83 1361.18 282.83 1358.35 282.83 1356.06 283.555 1354.31 285.005 1352.55 286.455 1351.68 288.362 1351.68 290.725 1351.68 292.014 1351.9 293.151 1352.35 294.136 1352.8 295.12 1353.7 296.204 1355.06 297.385 1356.42 298.567 1358.53 300.017 1361.4 301.736 1363.65 303.097 1365.46 304.341 1366.82 305.469 1368.18 306.597 1369.26 307.716 1370.05 308.826 1370.83 309.936 1371.41 311.108 1371.76 312.344 1372.12 313.579 1372.3 315.074 1372.3 316.829 1372.3 320.015 1371.45 322.746 1369.75 325.02 1368.05 327.293 1365.74 328.985 1362.82 330.095 1359.9 331.205 1356.58 331.76 1352.86 331.76 1349.89 331.76 1346.97 331.536 1344.1 331.089 1341.24 330.641 1338.05 329.88 1334.54 328.806L1337.12 317.097 1341.31 317.097C1341.45 320.535 1342.42 323.131 1344.21 324.885 1346 326.64 1348.85 327.517 1352.75 327.517 1356.15 327.517 1358.81 326.756 1360.73 325.234 1362.64 323.713 1363.6 321.555 1363.6 318.762 1363.6 317.151 1363.33 315.763 1362.8 314.6 1362.26 313.436 1361.38 312.317 1360.16 311.243 1358.95 310.168 1357.01 308.826 1354.36 307.214 1351.57 305.531 1349.39 304.01 1347.84 302.649 1346.28 301.288 1345.11 299.811 1344.32 298.218 1343.53 296.624 1343.14 294.789 1343.14 292.712 1343.14 289.884 1343.9 287.404 1345.42 285.273 1346.94 283.143 1349.12 281.505 1351.95 280.359 1354.77 279.213 1358.07 278.64 1361.83 278.64Z" fill-rule="evenodd"/><text fill="#000000" fill-opacity="0" font-family="Arial,Arial_MSFontService,sans-serif" font-size="53.1201" x="1334.54" y="325.12">𝑠</text><path d="M1403.99 302.993 1406.37 302.993C1406.32 304.425 1406.28 305.708 1406.26 306.841 1406.23 307.973 1406.21 309.074 1406.2 310.141 1406.18 311.209 1406.18 312.264 1406.18 313.306L1406.18 342.993C1406.18 343.8 1406.2 344.497 1406.26 345.083 1406.31 345.669 1406.39 346.164 1406.51 346.567 1406.63 346.971 1406.78 347.316 1406.98 347.602 1407.17 347.889 1407.4 348.136 1407.66 348.345 1407.97 348.657 1408.39 348.898 1408.91 349.067 1409.43 349.237 1410.1 349.38 1410.9 349.497 1411.71 349.614 1412.68 349.705 1413.81 349.77 1414.95 349.835 1416.31 349.881 1417.9 349.907L1417.9 353.306 1386.92 353.306 1386.92 349.907C1388.46 349.855 1389.76 349.796 1390.83 349.731 1391.89 349.666 1392.8 349.575 1393.56 349.458 1394.31 349.341 1394.92 349.21 1395.38 349.067 1395.83 348.924 1396.23 348.748 1396.57 348.54 1396.93 348.306 1397.24 348.052 1397.51 347.778 1397.77 347.505 1397.97 347.16 1398.13 346.743 1398.29 346.326 1398.41 345.819 1398.5 345.22 1398.59 344.621 1398.64 343.878 1398.64 342.993L1398.64 314.985C1398.64 313.97 1398.44 313.253 1398.05 312.837 1397.66 312.42 1397.1 312.212 1396.37 312.212 1395.56 312.212 1394.37 312.628 1392.78 313.462 1391.19 314.295 1389.13 315.532 1386.61 317.173 1386.27 316.574 1385.96 315.975 1385.67 315.376 1385.38 314.777 1385.08 314.165 1384.77 313.54 1388 311.769 1391.2 310.005 1394.36 308.247 1397.52 306.489 1400.73 304.738 1403.99 302.993Z" fill-rule="evenodd"/><text fill="#000000" fill-opacity="0" font-family="Arial,Arial_MSFontService,sans-serif" font-size="50.3125" x="1384.77" y="347.016">1</text><path d="M1573.73 746.699C1577.06 746.699 1580.1 746.896 1582.84 747.29 1585.57 747.683 1588.31 748.364 1591.03 749.331L1588.61 760.61 1584.26 760.61C1583.87 757.423 1582.82 755.006 1581.12 753.359 1579.42 751.712 1576.74 750.888 1573.09 750.888 1570.26 750.888 1567.97 751.613 1566.21 753.064 1564.46 754.514 1563.58 756.42 1563.58 758.784 1563.58 760.073 1563.8 761.21 1564.25 762.194 1564.7 763.179 1565.6 764.262 1566.96 765.444 1568.32 766.626 1570.44 768.076 1573.3 769.794 1575.56 771.155 1577.37 772.399 1578.73 773.527 1580.09 774.655 1581.16 775.774 1581.95 776.884 1582.74 777.994 1583.31 779.167 1583.67 780.402 1584.03 781.638 1584.21 783.133 1584.21 784.887 1584.21 788.074 1583.35 790.804 1581.65 793.078 1579.95 795.352 1577.64 797.044 1574.73 798.154 1571.81 799.264 1568.49 799.819 1564.76 799.819 1561.79 799.819 1558.87 799.595 1556.01 799.148 1553.14 798.7 1549.96 797.939 1546.45 796.865L1549.02 785.156 1553.21 785.156C1553.36 788.593 1554.32 791.189 1556.11 792.944 1557.9 794.698 1560.75 795.576 1564.65 795.576 1568.06 795.576 1570.71 794.815 1572.63 793.293 1574.55 791.771 1575.5 789.614 1575.5 786.821 1575.5 785.21 1575.24 783.822 1574.7 782.658 1574.16 781.495 1573.28 780.376 1572.07 779.301 1570.85 778.227 1568.92 776.884 1566.27 775.273 1563.47 773.59 1561.3 772.068 1559.74 770.708 1558.18 769.347 1557.01 767.87 1556.22 766.276 1555.43 764.683 1555.04 762.848 1555.04 760.771 1555.04 757.942 1555.8 755.463 1557.32 753.332 1558.84 751.202 1561.02 749.563 1563.85 748.418 1566.68 747.272 1569.97 746.699 1573.73 746.699Z" fill-rule="evenodd"/><text fill="#000000" fill-opacity="0" font-family="Arial,Arial_MSFontService,sans-serif" font-size="53.1201" x="1546.45" y="793.179">𝑠</text><path d="M1615.39 770.778C1618.1 770.778 1620.41 771.084 1622.32 771.696 1624.24 772.308 1625.79 773.135 1626.99 774.177 1628.19 775.218 1629.06 776.468 1629.59 777.927 1630.12 779.385 1630.39 780.961 1630.39 782.653 1630.39 783.669 1630.32 784.613 1630.17 785.485 1630.03 786.358 1629.78 787.217 1629.43 788.063 1629.08 788.91 1628.62 789.763 1628.05 790.622 1627.47 791.481 1626.76 792.393 1625.9 793.356 1625.25 794.19 1624.4 795.153 1623.36 796.247 1622.32 797.341 1621.18 798.513 1619.94 799.763 1618.7 801.013 1617.41 802.315 1616.05 803.669 1614.7 805.023 1613.38 806.364 1612.11 807.692 1610.83 809.02 1609.66 810.309 1608.59 811.559 1607.53 812.809 1606.65 813.955 1605.98 814.997L1620.43 814.997C1621.65 814.997 1622.63 814.951 1623.36 814.86 1624.09 814.769 1624.69 814.567 1625.17 814.255 1625.66 813.942 1626.07 813.467 1626.41 812.829 1626.74 812.191 1627.13 811.312 1627.58 810.192L1631.21 810.192C1631.08 812.041 1630.96 813.903 1630.84 815.778 1630.72 817.653 1630.6 819.515 1630.47 821.364L1597.38 821.364 1597.38 819.333C1598.01 817.927 1598.74 816.54 1599.57 815.173 1600.4 813.806 1601.34 812.419 1602.38 811.013 1603.42 809.606 1604.61 808.154 1605.94 806.657 1607.26 805.16 1608.74 803.604 1610.35 801.989 1612.8 799.541 1614.79 797.451 1616.33 795.72 1617.86 793.988 1619.07 792.445 1619.96 791.091 1620.85 789.737 1621.45 788.487 1621.78 787.341 1622.1 786.195 1622.26 784.971 1622.26 783.669 1622.26 782.341 1622.08 781.117 1621.7 779.997 1621.32 778.877 1620.78 777.927 1620.08 777.145 1619.37 776.364 1618.48 775.752 1617.4 775.309 1616.32 774.867 1615.08 774.645 1613.67 774.645 1611.25 774.645 1609.22 775.303 1607.58 776.618 1605.94 777.933 1604.66 779.841 1603.75 782.341L1598.63 782.341 1598.63 774.724C1601.97 773.343 1605.03 772.341 1607.83 771.716 1610.63 771.091 1613.15 770.778 1615.39 770.778Z" fill-rule="evenodd"/><text fill="#000000" fill-opacity="0" font-family="Arial,Arial_MSFontService,sans-serif" font-size="50.5859" x="1597.38" y="815.041">2</text></g></svg>